<svg width="40" height="32" xmlns="http://www.w3.org/2000/svg">
 <defs>
  <linearGradient y2="1.81922" x2="0.779071" y1="-0.174327" x1="0.308905" id="paint0_linear_1203_16153">
   <stop stop-color="white"/>
   <stop offset="1"/>
  </linearGradient>
 </defs>
 <g>
  <title>background</title>
  <rect fill="none" id="canvas_background" height="402" width="582" y="-1" x="-1"/>
 </g>
 <g>
  <title>Layer 1</title>
  <g id="svg_1">
   <path id="svg_2" fill="#B8B5AA" d="m31.469601,28.4219c0.127699,-2.263 -4.1709,-4.344299 -9.5926,-4.6499c-5.421801,-0.305599 -9.923,1.284201 -10.046301,3.542801c-0.1233,2.258499 4.1665,4.344299 9.5926,4.649799c5.4261,0.305599 9.918501,-1.284199 10.046301,-3.5427z"/>
  </g>
  <path id="svg_3" fill="#9C5723" d="m12.252,27.013399c0,1.594301 3.4706,2.887402 7.7471,2.887402c4.2766,0 7.7472,-1.2976 7.7472,-2.887402c0,-1.5898 -3.4706,-7.616899 -7.7472,-7.616899c-4.2765,0 -7.7471,6.022701 -7.7471,7.616899z"/>
  <path id="svg_4" fill="#B4703D" d="m40,7.44866c0,-4.11404 -8.954,-7.44866 -20,-7.44866c-11.04603,0 -20,3.33462 -20,7.44866c0,4.11404 8.95397,19.67564 20,19.67564c11.046,0 20,-15.557199 20,-19.67564z"/>
  <g id="svg_5" opacity="0.5">
   <path id="svg_6" fill="#B4703D" d="m2.24535,4.42843c-1.24202,1.64296 -1.76173,3.41877 -1.32129,5.07058c1.07024,3.98559 10.51754,17.52339 17.176841,15.707689c6.6593,-1.815599 8.015799,-18.307189 6.945599,-22.275089c-0.2064,-0.76814 -0.6017,-1.47171 -1.1495,-2.04594c-1.409399,-0.11957 -2.871599,-0.18157 -4.373499,-0.18157c-7.372801,0.01329 -13.79874,1.5101 -17.278151,3.72433z"/>
  </g>
  <path id="svg_7" fill="#E6BE8A" d="m40,7.44866c0,-4.11404 -8.954,-7.44866 -20,-7.44866c-11.04603,0 -20,3.33462 -20,7.44866c0,4.11404 8.95397,7.45304 20,7.45304c11.046,0 20,-3.334599 20,-7.45304z"/>
  <path id="svg_8" fill="#B4703D" d="m20.0007,13.706c10.3622,0 18.7624,-2.9086 18.7624,-6.49657c0,-3.58794 -8.4002,-6.49654 -18.7624,-6.49654c-10.36221,0 -18.76242,2.9086 -18.76242,6.49654c0,3.58797 8.40021,6.49657 18.76242,6.49657z"/>
  <path id="svg_9" fill="#d6b300" d="m19.9993,13.7281c7.460899,0 14.0674,-1.6031 17.057901,-3.84387c-0.625401,-3.051199 -8.178801,-5.539989 -17.057901,-5.539989c-8.8791,0 -16.43248,2.48879 -17.05789,5.51785c2.99493,2.240809 9.59699,3.86601 17.05789,3.86601z"/>
  <path id="svg_10" fill="url(#paint0_linear_1203_16153)" d="m5.72656,11.3634c3.4618,1.421599 8.62364,2.364799 14.274439,2.364799c6.8134,0 12.904602,-1.3285 16.194599,-3.276999c-2.202099,-2.70138 -8.152399,-4.69861 -14.943798,-4.69861c-7.5534,-0.02214 -14.071811,2.44893 -15.52524,5.61081z" opacity="0.6"/>
  <path id="svg_11" fill="white" d="m2.95573,10.6284c-0.15415,0.496 1.81458,1.5544 4.40432,2.3648c2.58974,0.8104 4.79635,1.062799 4.94605,0.5668c0.1497,-0.496 -2.0876,-0.6554 -4.66858,-1.4658c-2.58093,-0.8104 -4.52763,-1.9707 -4.68179,-1.4658z"/>
  <path id="svg_12" fill="white" d="m7.88019,16.385401c-0.68267,-1.0185 -1.47544,-1.687201 -1.76172,-1.488001c-0.28628,0.1993 0.02202,1.186899 0.70028,2.2143c0.67827,1.027399 1.47545,1.687201 1.76173,1.4879c0.286281,-0.1992 -0.017619,-1.195601 -0.70029,-2.214199z"/>
  <path id="svg_13" fill="white" d="m10.0594,19.7596c-0.40518,-0.332199 -0.850019,-0.4429 -0.995359,-0.274599c-0.14534,0.168299 0.06166,0.597898 0.46245,0.93c0.4008,0.3321 0.85001,0.442799 0.99541,0.2701c0.1453,-0.172701 -0.0617,-0.593401 -0.462501,-0.925501z"/>
  <path id="svg_14" fill="white" d="m14.1211,27.456301c-0.4404,-0.292301 -0.8809,-0.3764 -1.017401,-0.181601c-0.136499,0.194901 0.1145,0.589001 0.546101,0.8857c0.4317,0.2967 0.880899,0.372 1.013,0.181599c0.1322,-0.190399 -0.1277,-0.588999 -0.541699,-0.885698z"/>
  <path id="svg_15" fill="#7FA100" d="m23.101601,6.99671c-0.673901,0.17271 -1.171501,0.52699 -1.105501,0.78827c0.066101,0.261271 0.6695,0.33213 1.3477,0.15499c0.678301,-0.17714 1.1716,-0.52256 1.105501,-0.78383c-0.066,-0.26128 -0.665001,-0.33214 -1.3477,-0.15943zm0.176199,0.69084c-0.519699,0.13285 -0.982199,0.10628 -1.021799,-0.062c-0.0397,-0.16828 0.3435,-0.41627 0.8808,-0.54913c0.537399,-0.13285 0.982199,-0.10628 1.026199,0.062c0.0441,0.16828 -0.3787,0.41628 -0.885201,0.54913z"/>
  <path id="svg_16" fill="#7FA100" d="m28.8878,8.94974c-0.753201,-0.35428 -1.4711,-0.40299 -1.607599,-0.11514c-0.136501,0.287849 0.365599,0.81041 1.118698,1.16468c0.753101,0.35432 1.471001,0.40302 1.607601,0.11072c0.136499,-0.292279 -0.365601,-0.81041 -1.1187,-1.160259zm-0.3568,0.76612c-0.581301,-0.27013 -0.9821,-0.64655 -0.8808,-0.83255c0.101299,-0.18599 0.629801,-0.119571 1.211201,0.15057c0.581299,0.27014 0.9865,0.64655 0.8808,0.83698c-0.105701,0.19044 -0.629801,0.11957 -1.211201,-0.155z"/>
  <path id="svg_17" fill="#7FA100" d="m15.9703,10.0925c-0.5109,0.031 -0.9161,0.279 -0.911699,0.558001c0.004399,0.278999 0.440499,0.4739 0.942599,0.4429c0.502001,-0.031 0.9205,-0.2835 0.9116,-0.558c-0.008801,-0.2746 -0.431601,-0.473901 -0.9425,-0.442901zm0.022,0.7352c-0.3919,0.0221 -0.7179,-0.106299 -0.7223,-0.2835c-0.0044,-0.1771 0.3083,-0.3454 0.7047,-0.3675c0.396399,-0.0222 0.7179,0.1018 0.726701,0.283401c0.008799,0.1816 -0.3127,0.341 -0.709101,0.367599z"/>
  <path id="svg_18" fill="#7FA100" d="m15.4723,7.3733l-0.066099,0.05757c0.1718,0.15057 0.259899,0.29228 0.215799,0.38085c-0.044,0.08857 -0.5373,0.08414 -1.0218,-0.15943l-0.1101,-0.05757c-0.1935,-0.05445 -0.3691,-0.15994 -0.5085,-0.30555c-0.1394,-0.1456 -0.2375,-0.32601 -0.2843,-0.52257c-0.0574,0.01884 -0.106,0.05823 -0.1365,0.11071c-0.1233,0.24357 0.2907,0.69527 0.920501,1.00969c0.6298,0.31442 1.237599,0.38085 1.3565,0.13728c0.0793,-0.15942 -0.0748,-0.40742 -0.3655,-0.65098z"/>
  <path id="svg_19" fill="#7FA100" d="m10.747,9.02059c-0.4404,-0.25685 -0.880819,-0.323279 -0.97772,-0.155c-0.096889,0.16828 0.18058,0.51813 0.625421,0.77055c0.4448,0.25242 0.8809,0.32328 0.9778,0.155c0.0968,-0.16828 -0.185,-0.518129 -0.625501,-0.77055zm-0.2598,0.442841c-0.3391,-0.199281 -0.56817,-0.442841 -0.5021,-0.557981c0.0661,-0.11514 0.392,-0.03986 0.7311,0.15499c0.3391,0.19485 0.5682,0.44285 0.5065,0.55799c-0.0617,0.11514 -0.392,0.04871 -0.7355,-0.14614l0,-0.00886z"/>
  <path id="svg_20" fill="#7FA100" d="m5.87523,9.43257c-0.4096,0.181569 -0.68267,0.442849 -0.6122,0.61553c0.07047,0.1727 0.44043,0.1373 0.88086,-0.0443c0.44043,-0.18152 0.68267,-0.442801 0.6122,-0.61108c-0.07047,-0.168281 -0.47566,-0.14171 -0.88086,0.03985zm0.18058,0.41628c-0.31271,0.14171 -0.6034,0.17275 -0.65184,0.070849c-0.04845,-0.10185 0.17617,-0.2967 0.49328,-0.44284c0.31711,-0.14614 0.60339,-0.17271 0.65184,-0.07086c0.04845,0.10186 -0.17617,0.30557 -0.49328,0.44285z"/>
  <path id="svg_21" fill="#7FA100" d="m19.163099,6.08898l-0.088099,0.04872c-0.440401,0.19928 -0.823601,0.25242 -0.8808,0.11514c-0.057301,-0.13729 0.229,-0.41185 0.6562,-0.61556l0.1586,-0.07085l0,-0.06643c-0.060001,0.02212 -0.118801,0.04725 -0.176201,0.07528c-0.550501,0.26128 -0.9161,0.64213 -0.819201,0.8547c0.096901,0.21256 0.629801,0.1727 1.180401,-0.08857l0.1057,-0.05315c-0.052599,-0.06123 -0.0984,-0.12805 -0.1366,-0.19928z"/>
  <path id="svg_22" fill="#7FA100" d="m12.8827,11.6688c0.0529,0.150499 0.0485,0.2701 0,0.3321c-0.0484,0.061999 -0.396399,0 -0.7267,-0.212601l-0.5505,0.031c0.6078,0.5403 1.2288,0.788301 1.466599,0.558001c0.1365,-0.1373 0.110101,-0.4163 -0.039599,-0.748401l-0.1498,0.039901z"/>
  <path id="svg_23" fill="#7FA100" d="m23.250401,12.5681c-0.264301,0.0797 -0.4713,0.0797 -0.5154,0c-0.044001,-0.0797 0.215899,-0.3942 0.6166,-0.589c0.400799,-0.194901 0.7796,-0.248 0.841299,-0.1196c0.0616,0.1284 0,0.1506 -0.1145,0.248l0.088001,0c0.062899,-0.008801 0.126598,-0.008801 0.1894,0c0.039299,-0.0382 0.067699,-0.0863 0.082399,-0.1392c0.0147,-0.0529 0.0152,-0.1088 0.001301,-0.1619c-0.096901,-0.1993 -0.599001,-0.1594 -1.1187,0.0974c-0.519701,0.2569 -0.8808,0.62 -0.7663,0.8193c0.1145,0.199201 0.317099,0.155001 0.629799,0.0797c0.0044,-0.0822 0.026901,-0.1624 0.066101,-0.2347z"/>
  <path id="svg_24" fill="#7FA100" d="m26.9944,6.23102c-0.028,0.11342 -0.064899,0.22447 -0.1101,0.33213c-0.180601,0.44285 -0.440401,0.75284 -0.5858,0.69527c-0.1453,-0.05757 -0.1057,-0.46499 0.0749,-0.90783c0.037001,-0.09481 0.0811,-0.1866 0.132101,-0.27457l-0.057201,-0.04428c-0.0485,0.093 -0.096899,0.18599 -0.140999,0.28785c-0.2334,0.5757 -0.246601,1.11154 -0.0308,1.20454c0.215799,0.09299 0.5858,-0.30114 0.823599,-0.88569c0.057901,-0.14389 0.105,-0.29192 0.1409,-0.44285c-0.080198,0.02294 -0.163198,0.03486 -0.246599,0.03543z"/>
  <path id="svg_25" fill="#7FA100" d="m34.4646,9.71179c-0.0266,-0.06235 -0.068401,-0.116961 -0.121498,-0.15876c-0.053101,-0.0418 -0.115902,-0.06945 -0.1824,-0.08037l-0.030903,0l-0.242199,0.07528c0.1101,0.031 0.1894,0.07528 0.207001,0.141709c0.057301,0.20814 -0.414001,0.51375 -1.048203,0.69085c-0.379498,0.1476 -0.798199,0.1585 -1.184797,0.031c-0.125801,0.035 -0.253801,0.0617 -0.383202,0.0797c-0.002499,0.0117 -0.002499,0.0238 0,0.035399c0.0881,0.3189 0.823599,0.3897 1.647303,0.1639c0.823597,-0.225901 1.422497,-0.659901 1.338898,-0.97871z"/>
  <path id="svg_26" fill="#7FA100" d="m29.904699,6.91748c-0.6959,0 -1.2596,0.20371 -1.264,0.47385c-0.004499,0.27013 0.559301,0.48712 1.255201,0.49155c0.6959,0.00443 1.2596,-0.20371 1.264,-0.46941c0.0044,-0.26571 -0.559301,-0.49156 -1.255201,-0.49599zm0,0.70412c-0.5373,0 -0.9734,-0.14613 -0.9734,-0.31884c0,-0.17271 0.4405,-0.31 0.9778,-0.30557c0.5373,0.00443 0.968901,0.14614 0.968901,0.32328c0,0.17714 -0.444799,0.30999 -0.977701,0.30113l0.0044,0z"/>
  <path id="svg_27" fill="#7FA100" d="m24.044001,9.59626c0.392,-0.3277 0.739899,-0.46941 0.880899,-0.34099c0.1409,0.12843 0.1145,0.30114 0.0308,0.58013c0.1577,0.070761 0.3057,0.161551 0.440399,0.270101c0.207001,-0.54467 0.229101,-0.99194 0,-1.17793c-0.3039,-0.239141 -0.946899,0.03985 -1.6031,0.646549l0.251001,0.022141z"/>
  <path id="svg_28" fill="#7FA100" d="m21.938299,11.0713l-0.0441,-0.0665c-0.849998,0.3278 -1.589899,0.385301 -1.7132,0.1063c-0.1234,-0.279 0.352301,-0.7262 1.0746,-1.11594c-0.0308,-0.04429 -0.057199,-0.08857 -0.0837,-0.13286c-0.9865,0.527 -1.6075,1.2134 -1.4226,1.6297c0.184999,0.416201 1.2729,0.416201 2.440001,-0.061999c-0.091501,-0.1138 -0.1754,-0.233701 -0.251001,-0.358701z"/>
  <path id="svg_29" fill="#7FA100" d="m27.35,12.6431c-0.638601,-0.3056 -1.0658,-0.6953 -0.973301,-0.9123c0.092501,-0.217 0.779501,-0.1816 1.519501,0.1328c0.1513,0.066 0.298399,0.1415 0.440399,0.225901c0.0485,-0.0221 0.101301,-0.0354 0.149801,-0.053101c-0.1791,-0.1086 -0.3661,-0.2033 -0.559401,-0.2835c-0.9557,-0.403 -1.858601,-0.442801 -2.0128,-0.062c-0.1541,0.3809 0.3127,0.7972 1.021801,1.1824c0.142399,-0.0686 0.2806,-0.145499 0.414,-0.2302z"/>
  <path id="svg_30" fill="#7FA100" d="m19.056999,12.2801c-0.440498,-0.0443 -0.845699,0.062 -0.880899,0.2391c-0.0352,0.1771 0.3435,0.3543 0.8016,0.3986c0.458,0.0442 0.8412,-0.0753 0.8764,-0.2392c0.035301,-0.1638 -0.3391,-0.3543 -0.7971,-0.3985zm-0.0485,0.4649c-0.352299,-0.035399 -0.629799,-0.155 -0.620998,-0.2701c0.008799,-0.1151 0.3083,-0.1771 0.6607,-0.1417c0.352299,0.035399 0.634199,0.155 0.625399,0.265699c-0.008799,0.110701 -0.295099,0.181601 -0.6651,0.1461z"/>
  <path id="svg_31" fill="#c18d3e" d="m19.819799,5.75704c0.946901,-0.27456 1.127501,-0.96097 3.7437,-0.41185c2.6161,0.54913 2.365101,0.54913 0.973301,1.3064c-1.3918,0.75726 -0.6738,0.34542 -3.0478,0.27456c-4.5937,-0.12842 -1.669201,-1.16911 -1.669201,-1.16911z" opacity="0.5"/>
  <path id="svg_32" fill="#ceaf61" d="m23.4217,6.77564c-0.1152,-0.00573 -0.23,-0.01904 -0.3435,-0.03985c-0.531,-0.07944 -1.0665,-0.1253 -1.603199,-0.13729c-2.2946,-0.06642 -2.3871,-0.36313 -2.3871,-0.36313c0,-0.08414 0.3435,-0.32328 0.788401,-0.4827c0.217999,-0.06581 0.428999,-0.15334 0.629799,-0.26128c0.420601,-0.2363 0.8969,-0.3541 1.3785,-0.34099c0.5396,0.01319 1.076601,0.07994 1.603201,0.19928c0.6259,0.10334 1.241798,0.26038 1.841,0.46942c-0.2103,0.14611 -0.4328,0.27354 -0.665001,0.38084l-0.251099,0.13286c-0.629801,0.34542 -0.792801,0.44284 -0.991001,0.44284z"/>
  <path id="svg_33" fill="#c18d3e" d="m19.471901,10.6504c-1.700102,0.5093 -0.471201,1.2045 -5.188301,0.252399c-4.717,-0.9521 -3.5587,-1.64294 -3.3164,-1.771359c2.3255,-1.38168 1.1319,-0.5137 5.404099,-0.420711c8.236,0.14614 3.100601,1.939671 3.100601,1.939671z" opacity="0.5"/>
  <path id="svg_34" fill="#ceaf61" d="m17.618099,10.6284c-1.110699,-0.0286 -2.215199,-0.1771 -3.294399,-0.4428c-2.4929,-0.500421 -3.1227,-0.8857 -3.2768,-1.0407l0.0793,-0.04871c0.8808,-0.53141 1.2199,-0.699691 1.515,-0.721841c0.221,-0.0091 0.4424,0.004251 0.6607,0.039861c1.0034,0.17861 2.02,0.271939 3.039001,0.27899c3.2988,0.07086 4.095999,0.40742 4.281,0.53142c-0.386301,0.30547 -0.825201,0.53666 -1.294901,0.68198c-0.3514,0.0984 -0.6866,0.2476 -0.995399,0.4428c-0.200399,0.1702 -0.451401,0.2683 -0.713501,0.279z"/>
  <path id="svg_35" fill="#c18d3e" d="m33.4114,7.76285c-0.286201,-0.37642 -1.281601,0.76613 -2.906799,2.01495c-1.6252,1.2488 -3.6248,1.8289 -3.254801,2.1257c0.568201,0.442801 3.756901,0 5.377699,-1.2533c1.6208,-1.25325 1.638401,-1.76252 0.783901,-2.88735z" opacity="0.5"/>
  <path id="svg_36" fill="#ceaf61" d="m30.5049,9.77827c-1.167101,0.88573 -2.523701,1.448131 -3.083,1.79793c0.6959,0.239201 3.294399,-0.3321 4.703802,-1.4171c1.409397,-1.08496 1.537098,-1.56323 0.9161,-2.413489c-0.449303,0.22585 -1.330101,1.11154 -2.536901,2.03266z"/>

  <metadata id="svg_50">image/svg+xmlOpenClipartHard Boiled Egg2008-05-26T11:54:54https://openclipart.org/detail/17016jean_victor_balineggfood</metadata>
  <g id="svg_73"/>
  <g stroke="null" transform="rotate(-40 29.8723 8.40796)" id="svg_83">
   <g stroke="null" transform="matrix(0.0418583 0 0 0.0326134 -0.236464 27.192)" id="svg_82">
    <g stroke="null" transform="matrix(1.85622 0 0 1.85622 -0.0363433 -120.436)" id="svg_81">
     <path stroke="null" fill="#dadada" d="m453.32901,-273.672546c-8.580017,22.423004 -25.410034,40.55101 -42.996033,56.373016c-16.035004,13.353989 -39.018982,22.934006 -59.936005,16.013992c-6.793976,0.779999 -0.776001,5.75 2.902008,6.929993c20.84903,12.050018 47.153992,4.220001 64.860992,-9.809998c22.58902,-16.28598 36.34903,-43.394989 37.409027,-71.246994c-1.299988,-2.22702 -0.070007,0.384003 -2.23999,1.73999z" id="svg_74"/>
     <path stroke="null" fill="#fafafa" d="m411.222992,-301.804565c-20.477997,3.388397 -38.515991,11.855988 -56.473999,21.972015c-13.093018,8.39798 -26.575012,17.613007 -33.788025,31.790024c-5.104095,15.201981 5.809906,28.535004 15.864014,38.540985c15.368011,14.435989 34.091034,13.096008 52.847015,4.884003c19.490997,-9.488007 34.867004,-25.369019 48.19696,-42.132996c8.210022,-12.031021 17.589996,-21.828018 16.830048,-38.370041c-4.740051,-15.942993 -21.980042,-19.822998 -36.080017,-17.540985c-1.89801,0.151306 -5.502014,0.705292 -7.395996,0.856995z" id="svg_75"/>
     <path stroke="null" opacity="0.64" fill="#f5c13a" d="m405.417999,-257.917542c6.134003,14.458008 -4.493011,32.813004 -23.722015,40.970993c-19.229004,8.15802 -39.813019,3.046005 -45.946991,-11.412003c-6.134003,-14.456985 4.493988,-32.812012 23.721985,-40.971008c19.162994,-8.130005 39.670013,-3.092987 45.887024,11.270996" id="svg_76"/>
     <path stroke="null" fill="#b29494" d="m359.283966,-270.066559c-9.754974,4.139008 -17.322998,10.870026 -21.707977,18.444016c-4.38501,7.57399 -5.580017,16.050995 -2.40799,23.528015c3.171997,7.47699 10.097961,12.507996 18.592957,14.617981c8.494019,2.110016 18.581055,1.31601 28.335022,-2.822983c9.755005,-4.138992 17.364014,-10.853012 21.748993,-18.427017c4.36203,-7.533981 5.508026,-15.940994 2.399994,-23.388992c-0.016968,-0.040009 -0.002991,-0.087006 -0.019989,-0.127014c-0.010986,-0.028992 -0.02298,-0.058014 -0.036987,-0.085999c-0.006989,-0.02002 -0.016022,-0.039001 -0.024994,-0.058014c-3.21402,-7.427979 -10.137024,-12.424988 -18.613007,-14.506989c-8.475983,-2.082001 -18.544983,-1.296997 -28.266022,2.826996zm0.585999,1.381012c9.44101,-4.006012 19.228027,-4.739014 27.351013,-2.744019c8.122009,1.994995 14.559998,6.694 17.562012,13.628998c0.009979,0.029999 0.021973,0.058014 0.036011,0.085999c0.007996,0.02002 0.015961,0.039001 0.024963,0.058014c2.960999,6.980026 1.893005,14.905014 -2.30899,22.162033c-4.201996,7.256989 -11.550995,13.794983 -21.024994,17.813995c-9.473022,4.019989 -19.252991,4.748978 -27.390991,2.727997c-8.139008,-2.021011 -14.609009,-6.748001 -17.570007,-13.727997c-2.962006,-6.980011 -1.876984,-14.946014 2.325012,-22.203018c4.201965,-7.257019 11.521973,-13.78302 20.995972,-17.802002z" id="svg_77"/>
     <path stroke="null" fill="#b29494" d="m424.539001,-303.459839c-25.72702,0.20517 -49.666992,11.582001 -71.636017,23.963013c-12.81601,7.811981 -25.304993,17.526001 -32.506012,30.979996c-4.468109,10.259003 -0.140503,21.881012 6.565308,30.069c7.899689,10.35202 17.858978,19.141998 28.618011,26.391998c15.891998,8.420013 35.373993,4.639999 50.445007,-3.789978c26.233978,-13.870026 45.023987,-40.566025 49.354004,-69.912033c1.169983,-9.335968 2.859985,-20.273987 -3.619995,-28.143005c-5.560028,-7.331909 -15.080017,-9.903595 -23.910034,-9.554596c-1.099976,-0.01532 -2.210022,-0.012543 -3.309998,-0.004669l-0.000275,0.000275zm0.48996,1.389282c10.730042,-0.746582 23.800049,3.029999 27.929993,14.02002c3.910004,11.027039 -3,21.789001 -8.549988,30.864014c-11.039978,17.228989 -25.609985,32.056015 -41.701965,44.591019c-14.289001,9.509979 -32.337036,16.669968 -49.538025,11.459991c-13.623993,-4.509018 -23.627991,-16.167007 -30.27002,-28.445023c-3.61499,-7.235992 -3.605591,-16.444 1.633514,-22.923996c6.4505,-9.234024 15.548004,-16.241013 24.538025,-22.843002c15.080963,-9.936005 31.949982,-16.792023 48.872009,-22.878021c8.809967,-2.470398 17.955994,-3.581085 27.085968,-3.845001l0.000488,0zm29.450043,28.069031c0.76001,8.934998 -2.940002,17.427979 -5.089996,25.927017c-7.360046,21.46199 -23.360046,39.328003 -43.016022,50.398972c-15.191986,9.100021 -35.498962,12.590012 -51.475006,3.460007c-3.649994,-1.569977 -9.627991,-8.209991 -1.958984,-5.23999c8.699005,2.080002 17.961975,2.709991 26.494995,-0.429993c19.910004,-5.345001 35.990997,-19.330017 49.255005,-34.554993c10.659973,-11.641022 20.51001,-24.519028 25.790009,-39.56102l0,0z" id="svg_78"/>
     <path stroke="null" fill="#efa300" d="m389.197968,-267.335571c3.005005,2.118011 5.39801,4.81601 6.875,8.125031l0.062012,0.124969c5.546021,12.672043 -4.051025,28.75502 -21.437012,35.906021c-8.172943,3.361023 -16.583008,4.078003 -23.812988,2.656006c7.968994,3.726013 18.799011,3.813995 29.188019,-0.592987c16.621979,-7.053009 25.832977,-22.940002 20.530975,-35.438034l-0.062988,-0.125c-2.118988,-4.895996 -6.210999,-8.471008 -11.343018,-10.656006z" id="svg_79"/>
     <path stroke="null" fill="#efa300" d="m373.468994,-266.435547c-4.519989,-0.018005 -9.31601,0.811981 -14.031006,2.812988c-14.464996,6.136993 -22.458008,19.936035 -17.843994,30.812012c0.431976,1.019012 1.043976,1.919998 1.656982,2.813004c-4.042999,-12.044983 4.455994,-26.840012 19.655975,-33.532028c3.518036,-1.547974 7.079071,-2.448975 10.562042,-2.905975z" id="svg_80"/>
    </g>
   </g>
  </g>
  <g stroke="null" id="svg_61">
   <g stroke="null" transform="matrix(0.0335181 0 0 0.0392878 4.2721 29.8667)" id="svg_51">
    <g stroke="null" transform="matrix(1.85622 0 0 1.85622 -0.0363433 -120.436)" id="svg_52">
     <path stroke="null" fill="#dadada" d="m402.241272,-250.172012c-8.580017,22.422989 -25.410034,40.550995 -42.996033,56.373001c-16.035004,13.354004 -39.018982,22.934006 -59.936005,16.014008c-6.793976,0.779999 -0.776001,5.749985 2.902008,6.929993c20.848999,12.050003 47.153992,4.219986 64.860992,-9.809998c22.58902,-16.285995 36.34903,-43.395004 37.409027,-71.246994c-1.299988,-2.22699 -0.070007,0.384003 -2.23999,1.73999z" id="svg_59"/>
     <path stroke="null" fill="#fafafa" d="m360.135254,-278.304016c-20.477997,3.388397 -38.515991,11.855988 -56.473999,21.972015c-13.093018,8.39798 -26.575012,17.612991 -33.788025,31.789993c-5.104095,15.201996 5.809906,28.535004 15.864014,38.541c15.368011,14.435989 34.091003,13.095993 52.847015,4.884003c19.490997,-9.488007 34.867004,-25.369019 48.19696,-42.133011c8.210022,-12.030991 17.589996,-21.828003 16.830048,-38.37001c-4.740051,-15.942993 -21.980042,-19.822998 -36.080017,-17.540985c-1.89801,0.151306 -5.502014,0.705292 -7.395996,0.856995z" id="svg_58"/>
     <path stroke="null" opacity="0.64" fill="#f5c13a" d="m354.330261,-234.417023c6.134003,14.458008 -4.493011,32.813004 -23.722015,40.971008c-19.229004,8.158005 -39.813019,3.046005 -45.946991,-11.412003c-6.134003,-14.457001 4.493988,-32.811996 23.721985,-40.970993c19.162994,-8.12999 39.670013,-3.093002 45.887024,11.270996" id="svg_57"/>
     <path stroke="null" fill="#b29494" d="m308.196228,-246.56601c-9.754974,4.138992 -17.322998,10.869995 -21.707977,18.444c-4.38501,7.57399 -5.580017,16.050995 -2.40799,23.528c3.171997,7.477005 10.097961,12.507996 18.592957,14.617996c8.494019,2.110001 18.581024,1.315994 28.335022,-2.822998c9.755005,-4.138992 17.364014,-10.853012 21.748993,-18.427002c4.36203,-7.533997 5.508026,-15.940994 2.399994,-23.388992c-0.016968,-0.040009 -0.002991,-0.087006 -0.019989,-0.127014c-0.010986,-0.028992 -0.02298,-0.057999 -0.036987,-0.085983c-0.006989,-0.02002 -0.016022,-0.039017 -0.024994,-0.058014c-3.21402,-7.427994 -10.137024,-12.425003 -18.613007,-14.506989c-8.476013,-2.082016 -18.545013,-1.296997 -28.266022,2.826996zm0.585999,1.380997c9.44101,-4.005997 19.228027,-4.738998 27.351013,-2.744003c8.122009,1.994995 14.559998,6.694 17.562012,13.628998c0.009979,0.029999 0.021973,0.057999 0.036011,0.085999c0.007996,0.020004 0.015961,0.039001 0.024963,0.058014c2.960999,6.979996 1.893005,14.904984 -2.30899,22.162003c-4.201996,7.256989 -11.550995,13.794998 -21.024994,17.813995c-9.473022,4.019989 -19.252991,4.748993 -27.390991,2.727997c-8.139008,-2.020996 -14.609009,-6.748001 -17.570007,-13.727997c-2.962006,-6.980011 -1.876984,-14.945999 2.325012,-22.203003c4.201965,-7.257004 11.521973,-13.783005 20.995972,-17.802002z" id="svg_56"/>
     <path stroke="null" fill="#b29494" d="m373.451263,-279.95929c-25.72702,0.20517 -49.667023,11.582001 -71.636017,23.963028c-12.81601,7.811966 -25.304993,17.52597 -32.506012,30.979965c-4.468109,10.259003 -0.140503,21.881012 6.565308,30.069c7.899689,10.352005 17.858978,19.141998 28.618011,26.391998c15.891998,8.420013 35.373993,4.639999 50.445007,-3.789993c26.233978,-13.87001 45.023987,-40.56601 49.354004,-69.912003c1.169983,-9.335983 2.859985,-20.273987 -3.619995,-28.143005c-5.560028,-7.331909 -15.080017,-9.903595 -23.910034,-9.554596c-1.099976,-0.01532 -2.210022,-0.012543 -3.309998,-0.004669l-0.000275,0.000275zm0.48996,1.389282c10.730042,-0.746582 23.800049,3.029999 27.929993,14.02002c3.910004,11.027023 -3,21.789001 -8.549988,30.863998c-11.039978,17.228989 -25.609985,32.056 -41.701965,44.591003c-14.289001,9.509995 -32.337036,16.669983 -49.538025,11.459991c-13.623993,-4.509003 -23.627991,-16.166992 -30.27002,-28.445007c-3.61499,-7.235992 -3.605591,-16.444 1.633514,-22.923996c6.4505,-9.234009 15.548004,-16.240997 24.538025,-22.843002c15.080963,-9.935989 31.949982,-16.792007 48.872009,-22.878006c8.809967,-2.470398 17.955994,-3.581085 27.085968,-3.845001l0.000488,0zm29.450043,28.069016c0.76001,8.934998 -2.940002,17.427994 -5.089996,25.927002c-7.360046,21.462006 -23.360046,39.328003 -43.016022,50.398987c-15.191986,9.100006 -35.498993,12.590012 -51.475006,3.460007c-3.649994,-1.569992 -9.627991,-8.210007 -1.958984,-5.240005c8.699005,2.080017 17.961975,2.710007 26.494995,-0.429993c19.910004,-5.345001 35.990997,-19.330002 49.255005,-34.554993c10.659973,-11.641006 20.51001,-24.519012 25.790009,-39.561005l0,0z" id="svg_55"/>
     <path stroke="null" fill="#efa300" d="m338.110229,-243.835022c3.005005,2.118011 5.39801,4.81601 6.875,8.125015l0.062012,0.124985c5.546021,12.672012 -4.051025,28.755005 -21.437012,35.906006c-8.172974,3.361008 -16.583008,4.078003 -23.812988,2.656006c7.968994,3.725998 18.799011,3.813995 29.187988,-0.593002c16.622009,-7.052994 25.833008,-22.940002 20.531006,-35.438004l-0.062988,-0.125c-2.118988,-4.895996 -6.210999,-8.471008 -11.343018,-10.656006z" id="svg_54"/>
     <path stroke="null" fill="#efa300" d="m322.381226,-242.935013c-4.519989,-0.01799 -9.31601,0.811996 -14.030975,2.813004c-14.464996,6.136993 -22.458008,19.936005 -17.843994,30.811996c0.431976,1.018997 1.043976,1.919998 1.656982,2.812988c-4.042999,-12.044983 4.455994,-26.839981 19.655975,-33.531998c3.518036,-1.547989 7.079041,-2.44899 10.562012,-2.905991z" id="svg_53"/>
    </g>
   </g>
  </g>
 </g>
</svg>