<svg width="20" height="18" viewBox="0 0 26 24" fill="none" xmlns="http://www.w3.org/2000/svg">
<path d="M12.0064 1.56917C12.413 0.745461 13.5876 0.745462 13.9942 1.56917L16.8627 7.38039C17.024 7.70719 17.3357 7.93381 17.6963 7.98652L24.1127 8.92437C25.0215 9.05721 25.3837 10.1743 24.7258 10.8151L20.0846 15.3356C19.8232 15.5902 19.7039 15.9572 19.7655 16.3169L20.8606 22.7018C21.0159 23.6073 20.0654 24.2978 19.2523 23.8702L13.5162 20.8536C13.1933 20.6838 12.8074 20.6838 12.4844 20.8536L6.74834 23.8702C5.93521 24.2978 4.98472 23.6073 5.14002 22.7018L6.23511 16.3169C6.2968 15.9572 6.17747 15.5902 5.91604 15.3356L1.27489 10.8151C0.616963 10.1743 0.979162 9.05721 1.88793 8.92438L8.30438 7.98652C8.66499 7.93381 8.97665 7.70719 9.13796 7.38039L12.0064 1.56917Z" fill="#F9B043"/>
</svg>
