<svg width="42" height="32" xmlns="http://www.w3.org/2000/svg">

 <g>
  <title>background</title>
  <rect fill="none" id="canvas_background" height="402" width="582" y="-1" x="-1"/>
 </g>
 <g>
  <title>Layer 1</title>
  <g id="svg_1">
   <path id="svg_2" fill="#B8B5AA" d="m33.0415,28.026699c0.129501,-2.485298 -4.370199,-4.818399 -10.0723,-5.152399c-5.702,-0.334 -10.419001,1.4195 -10.5485,3.929399c-0.1295,2.509901 4.3748,4.813501 10.072201,5.152401c5.697399,0.338898 10.414497,-1.4195 10.548599,-3.929401z"/>
  </g>
  <path id="svg_3" fill="#9C5723" d="m12.8652,26.4643c0,1.768299 3.644199,3.197599 8.1346,3.197599c4.4904,0 8.134501,-1.4293 8.134501,-3.197599c0,-1.7682 -3.6441,-8.4531 -8.134501,-8.4531c-4.4904,0 -8.1346,6.6849 -8.1346,8.4531z"/>
  <path id="svg_4" fill="#B4703D" d="m42,15.9532c0,-2.947101 -9.401699,-5.3145 -21,-5.3145c-11.59833,0 -21,2.377299 -21,5.3145c0,2.9372 9.40167,12.3334 21,12.3334c11.598301,0 21,-9.4011 21,-12.3334z"/>
  <path id="svg_5" fill="#E6BE8A" d="m21,25.654301c11.598,0 21,-4.343102 21,-9.700701c0,-5.3575 -9.402,-9.70067 -21,-9.70067c-11.59798,0 -21,4.34317 -21,9.70067c0,5.357599 9.40202,9.700701 21,9.700701z"/>
  <path id="svg_6" fill="#B4703D" d="m21.000601,24.0972c-10.678101,0 -19.695911,-3.870501 -19.695911,-8.458c0,-4.5876 9.01781,-8.45805 19.695911,-8.45805c10.677999,0 19.695799,3.87535 19.695799,8.45805c0,4.5826 -9.017799,8.458 -19.695799,8.458z"/>
  <path id="svg_7" fill="#9c5723" d="m17.6511,11.4005c-7.477901,-1.0315 -14.13719,2.151299 -14.57652,6.945199c-0.01611,0.238701 -0.01611,0.4783 0,0.7171c3.13081,2.947001 10.08612,5.0345 17.943219,5.0345c3.1737,0.012001 6.338902,-0.347099 9.438601,-1.0707c0.077801,-0.289 0.1304,-0.584999 0.157301,-0.884199c0.420799,-4.7938 -5.503201,-9.715401 -12.962601,-10.7419z"/>
  <g id="svg_8">
   <path id="svg_9" fill="#9c5723" d="m24.3524,11.4c20.939901,-3.541329 0.753799,16.4986 14.590399,7.662401c-3.130798,2.946999 -10.086098,5.0345 -17.943199,5.0345c-3.1737,0.011999 -6.339,-0.347101 -9.4387,-1.070801c-0.075399,-0.289499 -0.127999,-0.5853 -0.1572,-0.8841c-0.4393,-4.7938 5.517099,-9.4895 12.9487,-10.742001z"/>
  </g>
  <path id="svg_10" fill="white" d="m3.10264,20.0791c-0.16186,0.6434 1.90531,2.0236 4.62453,3.0748c2.71923,1.0511 5.02683,1.404699 5.18413,0.7416c0.1572,-0.663099 -2.3539,-0.437099 -5.08701,-1.473499c-2.7331,-1.036402 -4.55979,-2.986301 -4.72165,-2.342901z"/>
  <path id="svg_11" fill="#FFC554" d="m26.8508,3.55109c3.2372,-3.069842 2.6961,-2.991254 2.441801,-3.300694c-0.2544,-0.309439 -0.120201,-0.879201 -3.3713,2.205374c-3.251001,3.08457 -5.678902,5.80077 -5.419901,6.11021c0.2589,0.30944 3.084499,-1.94014 6.3494,-5.01489z"/>
  <path id="svg_12" fill="white" d="m26.400999,3.01588c3.237101,-3.069839 2.834801,-2.829163 2.746901,-2.947045c-0.087799,-0.117882 0.184999,-0.491174 -3.066,2.559015c-3.251101,3.05019 -5.813099,5.66324 -5.7344,5.76639c0.0786,0.103149 2.802401,-2.30361 6.053499,-5.37836z"/>
  <path id="svg_13" fill="#FFC554" d="m12.6072,15.9975c3.237101,-3.0747 2.7747,-2.893001 2.636001,-3.0698c-0.138801,-0.1768 0.073999,-0.6484 -3.1771,2.4215c-3.25104,3.0698 -5.76216,5.7123 -5.59105,5.8891c0.17111,0.176899 2.88108,-2.166 6.13215,-5.2408z"/>
  <path id="svg_14" fill="white" d="m12.3474,15.6834c3.237201,-3.0748 2.8626,-2.7948 2.8117,-2.8537c-0.050799,-0.059 0.2544,-0.437201 -2.996699,2.6376c-3.25102,3.074699 -5.76214,5.712299 -5.68815,5.771299c0.07399,0.058901 2.62211,-2.480499 5.87315,-5.5552z"/>
  <path id="svg_15" fill="#FFC554" d="m36.681599,4.17523c2.982903,-3.369457 2.437202,-3.241751 2.164303,-3.521721c-0.2728,-0.279969 -0.189602,-0.864466 -3.172401,2.504991c-2.9828,3.36945 -5.151701,6.32632 -4.8974,6.60629c0.2544,0.28001 2.927299,-2.225019 5.905499,-5.58956z"/>
  <path id="svg_16" fill="white" d="m36.192299,3.68389c2.9781,-3.369453 2.585102,-3.089484 2.492599,-3.192631c-0.092499,-0.103146 0.1618,-0.520644 -2.839497,2.843901c-3.001301,3.36454 -5.322802,6.17897 -5.221102,6.27229c0.101801,0.09332 2.5851,-2.559021 5.567999,-5.92356z"/>
  <path id="svg_17" fill="#FFC554" d="m25.435101,16.277401c-0.2174,-0.216101 -0.078701,-0.746601 -3.0569,2.622898c-1.798901,2.028502 -3.325001,3.8901 -4.2083,5.0984l0.430099,0l0.4625,0c1.063601,-1.0364 2.515699,-2.573799 4.0788,-4.341999c2.9828,-3.3449 2.492599,-3.158199 2.2938,-3.379299z"/>
  <path id="svg_18" fill="white" d="m25.2959,16.1598c-0.073999,-0.073599 0.1803,-0.491099 -2.797901,2.8783c-1.748098,1.964701 -3.2372,3.787001 -4.1621,4.970701l0.240501,0l0.0509,0c0.985001,-1.1199 2.460199,-2.8242 4.1297,-4.7153c2.9874,-3.359601 2.6129,-3.060001 2.5389,-3.133701z"/>
  <path id="svg_19" fill="#99990d" d="m24.791401,5.24591c-0.430201,-0.67973 -1.0809,-1.16755 -1.8281,-1.37046c-0.747101,-0.20291 -1.538401,-0.10672 -2.223001,0.27023c-0.629,0.21841 -1.182699,0.63043 -1.590799,1.18373c-0.490999,0.25236 -0.917601,0.62633 -1.243999,1.09041c-0.2696,0.43387 -0.4095,0.94415 -0.401201,1.46393c0.008202,0.51977 0.164202,1.02476 0.447401,1.44873c0.0963,0.16396 0.2062,0.31847 0.3284,0.461699c0,0.07859 0.0369,0.15227 0.064701,0.22592c0.818499,2.004001 3.3944,2.3773 5.087,1.4735c0.177399,-0.0991 0.347399,-0.212399 0.508699,-0.3389c0.4363,-0.1784 0.827,-0.4635 1.140299,-0.8322c0.3134,-0.36859 0.540602,-0.81041 0.6632,-1.28964c0.3561,-1.27705 -0.263599,-2.77022 -0.952599,-3.78695z"/>
  <path id="svg_20" fill="#9e9e0b" d="m24.136,5.23088c-0.372499,-0.59601 -0.938601,-1.02556 -1.5902,-1.20673c-0.6516,-0.18117 -1.343199,-0.1013 -1.9429,0.22438c-0.5469,0.19348 -1.028999,0.55188 -1.3874,1.03147c-0.427799,0.22023 -0.799099,0.54716 -1.0821,0.95288c-0.236599,0.37773 -0.359301,0.82298 -0.351801,1.27657c0.007401,0.45359 0.144602,0.89404 0.3934,1.2628c0.0816,0.14362 0.176001,0.27851 0.282101,0.40276c0.0158,0.06686 0.0359,0.132501 0.060101,0.19647c0.7076,1.74362 2.955099,2.06782 4.4303,1.27702c0.161301,-0.0831 0.316,-0.18 0.4625,-0.289801c0.3769,-0.1549 0.7145,-0.40127 0.985901,-0.71935c0.271299,-0.31808 0.469,-0.6991 0.5772,-1.11269c0.305199,-1.11005 -0.240501,-2.41167 -0.837101,-3.29578z"/>
  <g id="svg_21">
   <path id="svg_22" fill="#FFC554" d="m21.559299,7.95691c1.0914,-1.11496 1.512201,-2.53937 0.9249,-3.1779c-0.587299,-0.63852 -1.9331,-0.25541 -3.0291,0.85956c-1.095999,1.11496 -1.512199,2.53446 -0.924898,3.17298c0.587299,0.63853 1.9331,0.25542 3.029099,-0.85464z"/>
  </g>
  <g id="svg_23">
   <path id="svg_24" fill="#9C5723" d="m23.923599,3.92923c-2.2568,-1.59632 -5.350599,0.74167 -6.326399,2.45587c-0.041401,0.12244 -0.0769,0.24703 -0.1064,0.37329c-0.212702,0.39785 0.203499,0.80552 0.656698,0.80061c0.7446,0.04421 1.077501,0.35365 0.998901,0.93815c0.041,0.1566 0.1336,0.292359 0.260899,0.38252c0.1273,0.090159 0.280901,0.12872 0.4328,0.10865c0.374901,-0.07946 0.76,-0.08778 1.1376,-0.02456c0.146101,0.031001 0.2978,0.00282 0.425301,-0.07898c0.1276,-0.08181 0.2216,-0.21132 0.2638,-0.36308c0.063801,0.36775 0.145601,0.73171 0.2451,1.09041c0.062601,0.118611 0.1562,0.215509 0.2694,0.27911c0.1131,0.06359 0.241201,0.09118 0.368801,0.07945c0.6798,0 1.072899,-0.85956 1.3272,-1.31635c0.1043,-0.201119 0.1835,-0.41576 0.235899,-0.63853c0.2173,0.17192 0.416201,0.3733 0.615,0.55012c0.1047,0.078239 0.228201,0.123059 0.356001,0.129149c0.1278,0.00609 0.254601,-0.02679 0.3654,-0.094769c1.7157,-1.23285 -0.1479,-3.68872 -1.526001,-4.67106z"/>
  </g>
  <path id="svg_25" fill="white" d="m18.1658,6.76352c0.0879,-0.13752 0.092501,-0.2947 0,-0.35364c-0.092501,-0.05894 -0.2173,0 -0.305201,0.14244c-0.0879,0.14244 -0.092499,0.2947 0,0.35364c0.092501,0.05895 0.2174,-0.00491 0.305201,-0.14244z"/>
  <path id="svg_26" fill="white" d="m19.7609,8.24195c0.0879,-0.13752 0.092499,-0.2947 0,-0.35364c-0.092501,-0.05894 -0.2173,0 -0.3006,0.14735c-0.0832,0.14735 -0.097101,0.28979 0,0.348741c0.097099,0.05894 0.2127,-0.00492 0.3006,-0.14245z"/>
  <path id="svg_27" fill="white" d="m19.631201,7.72614c0.036999,-0.05894 0.036999,-0.12279 0,-0.14735c-0.037001,-0.02456 -0.092501,0 -0.124802,0.05894c-0.032398,0.05894 -0.041698,0.12279 0,0.14735c0.041601,0.02456 0.087801,-0.00491 0.124802,-0.05894z"/>
  <path id="svg_28" fill="white" d="m25.1675,7.99651c-0.0555,-0.08841 -0.1387,-0.13753 -0.194199,-0.10315c-0.0555,0.03439 -0.0555,0.14244 0,0.23086c0.055498,0.08841 0.138699,0.14244 0.194199,0.10314c0.0555,-0.039289 0.050901,-0.137529 0,-0.23085z"/>
  <path id="svg_29" fill="white" d="m22.4335,9.24387c0,-0.20138 -0.073999,-0.36838 -0.171101,-0.36838c-0.097099,0 -0.180399,0.162089 -0.180399,0.36347c0,0.20138 0.073999,0.36347 0.171099,0.36838c0.0972,0.00491 0.1758,-0.16209 0.180401,-0.36347z"/>
  <path id="svg_30" fill="white" d="m22.7663,3.85573c-0.101801,-0.23085 -1.017401,-0.09332 -2.0441,0.30453c-1.0266,0.39785 -1.7619,0.90867 -1.678699,1.13461c0.0833,0.22594 0.781599,-0.49117 1.812799,-0.88411c1.0313,-0.39294 2.0117,-0.32909 1.91,-0.55503z"/>
  <path id="svg_31" fill="#d8d4d4" d="m20.684601,9.04764c-0.479601,-0.752769 -1.202002,-1.29319 -2.0308,-1.51938c-0.828901,-0.22619 -1.707001,-0.12253 -2.468901,0.29145c-0.6998,0.24331 -1.3162,0.70136 -1.7712,1.31634c-0.5466,0.28382 -1.0221,0.70128 -1.3873,1.21815c-0.6752,1.0413 -0.5365,2.205299 0.0555,3.246599c0.107301,0.174001 0.227901,0.338301 0.360701,0.4912c0.027699,0.0786 0.0416,0.167 0.073999,0.2505c0.9249,2.229899 3.7782,2.642501 5.6696,1.6356c0.198502,-0.1104 0.388601,-0.2369 0.568901,-0.3782c0.478001,-0.199901 0.9058,-0.515201 1.2493,-0.921c0.3435,-0.4058 0.593399,-0.8909 0.73,-1.417c0.4069,-1.4195 -0.2868,-3.084599 -1.049799,-4.21426z"/>
  <path id="svg_32" fill="#edeaea" d="m19.9503,9.02796c-0.4186,-0.65949 -1.0506,-1.13283 -1.776001,-1.33021c-0.7255,-0.19737 -1.493898,-0.10505 -2.1595,0.25945c-0.607999,0.21503 -1.143399,0.61462 -1.539999,1.14935c-0.4745,0.24697 -0.8867,0.6107 -1.2023,1.060949c-0.2636,0.420601 -0.4007,0.916301 -0.3933,1.4214c0.0074,0.5052 0.1591,0.9961 0.4349,1.407701c0.0939,0.1573 0.198999,0.3068 0.3145,0.447c0.027699,0.0737 0.0416,0.1474 0.0693,0.216101c0.7908,1.9647 3.292701,2.308499 4.9344,1.429299c0.173601,-0.0969 0.3405,-0.2069 0.499401,-0.329c0.423199,-0.1731 0.801899,-0.4496 1.1056,-0.8072c0.303699,-0.3575 0.523899,-0.786099 0.6425,-1.2509c0.342199,-1.2377 -0.263601,-2.6867 -0.929501,-3.67394z"/>
  <g id="svg_33">
   <path id="svg_34" fill="#FFC554" d="m17.077801,12.0632c1.2209,-1.2427 1.687899,-2.82423 1.045099,-3.53643c-0.642799,-0.71221 -2.1504,-0.284889 -3.3713,0.95287c-1.2208,1.23776 -1.687901,2.82426 -1.0451,3.54136c0.6428,0.7171 2.1504,0.2849 3.371301,-0.9578z"/>
  </g>
  <g id="svg_35">
   <path id="svg_36" fill="#9C5723" d="m19.708799,7.60359c-2.511099,-1.77805 -5.956399,0.82517 -7.0432,2.71131c-0.0462,0.0835 -0.0832,0.3487 -0.1202,0.4126c-0.2359,0.4469 0.2312,0.8988 0.7307,0.8939c0.832399,0.0442 1.2023,0.3929 1.1145,1.0413c0.0367,0.1843 0.136499,0.3475 0.28,0.4582c0.1435,0.1107 0.320601,0.1609 0.4969,0.141c0.4175,-0.0885 0.846401,-0.0985 1.267101,-0.0295c0.1626,0.0343 0.331299,0.003 0.473299,-0.0879c0.142,-0.090799 0.246901,-0.2346 0.294399,-0.4032c0.068501,0.4097 0.159601,0.8148 0.2728,1.213201c0.0693,0.1331 0.1735,0.242 0.2999,0.313499c0.1264,0.071501 0.269701,0.1025 0.4123,0.0892c0.753799,0 1.193201,-0.9823 1.475201,-1.473499c0.115999,-0.224 0.2031,-0.4635 0.258999,-0.7122c0.240501,0.1965 0.462502,0.4175 0.6891,0.613999c0.1157,0.0874 0.252701,0.137601 0.3946,0.144501c0.1418,0.007 0.2826,-0.0295 0.405401,-0.1052c1.91,-1.4244 -0.1665,-4.13572 -1.701801,-5.22121z"/>
  </g>
  <path id="svg_37" fill="white" d="m13.3006,10.7374c0.0971,-0.1523 0.1064,-0.3291 0,-0.3979c-0.1064,-0.0688 -0.2358,0 -0.3376,0.1621c-0.101701,0.1621 -0.101701,0.3291 0,0.3929c0.1018,0.0639 0.240499,-0.0049 0.3376,-0.1571z"/>
  <path id="svg_38" fill="white" d="m15.0801,12.3827c0.0972,-0.1523 0.1018,-0.3291 0,-0.3929c-0.1017,-0.063901 -0.2404,0 -0.3376,0.162c-0.0971,0.1621 -0.1017,0.3291 0,0.393c0.1018,0.0638 0.240499,-0.0098 0.3376,-0.1621z"/>
  <path id="svg_39" fill="white" d="m14.9317,11.7882c0.0416,-0.0639 0.0416,-0.1376 0,-0.162101c-0.041599,-0.0246 -0.097099,0 -0.1388,0.063801c-0.0416,0.0639 -0.0416,0.1375 0,0.1621c0.0417,0.0246 0.0972,0.0197 0.1388,-0.0638z"/>
  <path id="svg_40" fill="white" d="m21.0977,12.1127c-0.0555,-0.103201 -0.152599,-0.152301 -0.212801,-0.117898c-0.060099,0.034397 -0.060099,0.157198 0,0.260298c0.060202,0.1031 0.157301,0.1523 0.217402,0.113c0.060099,-0.0393 0.0555,-0.1523 -0.004601,-0.2554z"/>
  <path id="svg_41" fill="white" d="m18.034901,13.4975c0,-0.225901 -0.0832,-0.407701 -0.1896,-0.407701c-0.1063,0 -0.198801,0.1769 -0.198801,0.402801c0,0.2259 0.0832,0.4077 0.1896,0.4077c0.1064,0 0.198801,-0.1768 0.198801,-0.4028z"/>
  <path id="svg_42" fill="white" d="m18.429001,7.49531c-0.115601,-0.25541 -1.133001,-0.10314 -2.279902,0.34383c-1.146899,0.44697 -1.983899,1.0069 -1.849799,1.26231c0.1341,0.25542 0.874,-0.54029 2.016299,-0.98234c1.1422,-0.44206 2.224401,-0.36838 2.113401,-0.6238z"/>
  <path id="svg_43" fill="#ce65ce" d="m15.908,13.4532c-0.5065,-0.798301 -1.271399,-1.3714 -2.1494,-1.6104c-0.878,-0.2391 -1.8082,-0.1274 -2.6138,0.3137c-0.7324,0.2592 -1.37602,0.7428 -1.849831,1.3901c-0.57727,0.296 -1.078629,0.7358 -1.46136,1.281899c-0.71217,1.1003 -0.56881,2.3282 0.0555,3.438201c0.11171,0.191299 0.23858,0.372 0.37921,0.540298c0.03237,0.088402 0.04624,0.181801 0.08324,0.265301c0.95728,2.357599 3.986341,2.794701 5.979541,1.728901c0.210799,-0.114 0.4119,-0.2472 0.601199,-0.397902c0.513201,-0.209099 0.9726,-0.5441 1.340701,-0.977798c0.368099,-0.433601 0.634399,-0.953501 0.7773,-1.517302c0.397699,-1.5079 -0.333,-3.261399 -1.142301,-4.454999z"/>
  <path id="svg_44" fill="#e883ef" d="m15.1361,13.4286c-0.4445,-0.6954 -1.113299,-1.1938 -1.880199,-1.401c-0.7668,-0.2073 -1.5786,-0.109 -2.2819,0.276199c-0.6425,0.2243 -1.20866,0.644501 -1.62785,1.208301c-0.501471,0.261 -0.937361,0.6448 -1.27174,1.1199c-0.27734,0.4446 -0.42098,0.9682 -0.411891,1.501499c0.00908,0.5333 0.17046,1.051102 0.46276,1.4848c0.094879,0.1742 0.2048,0.3386 0.32834,0.491201c0.02775,0.0786 0.04162,0.157099 0.07399,0.230799c0.83242,2.053101 3.47299,2.4559 5.207191,1.5079c0.1845,-0.100599 0.3609,-0.217199 0.5272,-0.3487c0.448,-0.182199 0.8491,-0.474201 1.1706,-0.8524c0.3215,-0.378101 0.5542,-0.8316 0.679199,-1.3235c0.3654,-1.321301 -0.272799,-2.853701 -0.975699,-3.895z"/>
  <g id="svg_45">
   <path id="svg_46" fill="#e883ef" d="m12.1071,16.6359c1.3041,-1.3114 1.766601,-2.9814 1.1007,-3.737801c-0.666,-0.7564 -2.2707,-0.2996 -3.56093,1.0118c-1.290239,1.311501 -1.78044,2.9815 -1.100639,3.733001c0.67981,0.7514 2.27067,0.299599 3.560869,-1.007z"/>
  </g>
  <g id="svg_47">
   <path id="svg_48" fill="#9C5723" d="m14.8819,11.9258c-2.6498,-1.8763 -6.28933,0.8743 -7.43159,2.8782c-0.05087,0.0885 -0.09249,0.3635 -0.12948,0.437201c-0.2451,0.476399 0.2451,0.967599 0.77229,0.967599c0.87866,0.044201 1.26712,0.412601 1.17926,1.100201c0.04561,0.1866 0.15303,0.3493 0.30254,0.4585c0.14951,0.1092 0.33108,0.1574 0.51138,0.1359c0.4419,-0.0935 0.8959,-0.1035 1.3411,-0.029501c0.171201,0.036701 0.3492,0.0035 0.498301,-0.093c0.149199,-0.096498 0.2586,-0.249199 0.306399,-0.427698c0.076,0.432499 0.173301,0.860399 0.291301,1.282c0.0729,0.139999 0.1825,0.2544 0.315499,0.329399c0.133101,0.075001 0.2837,0.1073 0.433701,0.093c0.7954,0 1.2625,-1.011801 1.5631,-1.547199c0.1194,-0.237801 0.211,-0.490101 0.272799,-0.751501c0.2544,0.206301 0.4902,0.442101 0.726101,0.648399c0.122999,0.091101 0.2679,0.143202 0.417799,0.150101c0.149801,0.007 0.298401,-0.0315 0.428501,-0.1108c2.0163,-1.512897 -0.1758,-4.3715 -1.799001,-5.5208z"/>
  </g>
  <path id="svg_49" fill="white" d="m8.11559,15.2266c0.106359,-0.1572 0.11099,-0.3438 0,-0.4126c-0.110991,-0.0687 -0.25435,0 -0.35609,0.167c-0.10174,0.167 -0.11099,0.3488 0,0.4175c0.11099,0.0688 0.25435,-0.0049 0.35609,-0.171901z"/>
  <path id="svg_50" fill="white" d="m9.99322,16.970301c0.10638,-0.1621 0.11098,-0.343801 0,-0.412601c-0.110991,-0.0688 -0.254351,0 -0.36071,0.167002c-0.10637,0.167 -0.10637,0.3487 0,0.4175c0.106359,0.068699 0.25897,-0.0098 0.36071,-0.1719z"/>
  <path id="svg_51" fill="white" d="m9.84111,16.3659c0.04163,-0.0688 0.046249,-0.1474 0,-0.176901c-0.04624,-0.0294 -0.10636,0 -0.14798,0.0737c-0.04162,0.0737 -0.04625,0.142401 0,0.171902c0.04624,0.029499 0.10174,-0.0049 0.14798,-0.068701z"/>
  <path id="svg_52" fill="white" d="m16.3477,16.700001c-0.0602,-0.108002 -0.1665,-0.162001 -0.226601,-0.122702c-0.0602,0.039202 -0.0648,0.167002 0,0.275002c0.064701,0.108099 0.166401,0.1621 0.231201,0.117899c0.064699,-0.044199 0.060099,-0.1768 -0.004601,-0.270199z"/>
  <path id="svg_53" fill="white" d="m13.1344,18.173401c0,-0.240601 -0.0879,-0.432201 -0.1988,-0.432201c-0.111,0 -0.2082,0.191601 -0.2128,0.427301c-0.004601,0.2358 0.0879,0.427399 0.2035,0.432299c0.1156,0.0049 0.2081,-0.2162 0.2081,-0.427399z"/>
  <path id="svg_54" fill="white" d="m13.5264,11.813c-0.1156,-0.2652 -1.1931,-0.108 -2.404699,0.363501c-1.21165,0.471499 -2.09031,1.0855 -1.97007,1.3311c0.120239,0.2456 0.92487,-0.569799 2.12727,-1.0364c1.2024,-0.4666 2.3678,-0.388 2.247499,-0.6582z"/>
  <path id="svg_55" fill="#99990d" d="m34.618401,5.50593c-0.537201,-0.65564 -1.282799,-1.07851 -2.094601,-1.18811c-0.811899,-0.10959 -1.633301,0.10175 -2.307899,0.59379c-0.6408,0.31806 -1.178301,0.83087 -1.5446,1.47352c-0.483702,0.33292 -0.884901,0.78437 -1.17,1.31635c-0.230501,0.49451 -0.3146,1.05157 -0.2411,1.59781c0.0735,0.54624 0.300999,1.05601 0.652699,1.462211c0.120802,0.160299 0.255501,0.3083 0.402302,0.4421c0.0285,0.0771 0.0609,0.1525 0.097099,0.2259c1.105299,1.994201 3.8615,2.023601 5.5495,0.835c0.177101,-0.1279 0.344101,-0.2708 0.499401,-0.427299c0.434601,-0.254 0.806801,-0.6132 1.086399,-1.0484c0.279602,-0.435201 0.458702,-0.93419 0.5229,-1.45662c0.235901,-1.37038 -0.605801,-2.85372 -1.452099,-3.82625z"/>
  <path id="svg_56" fill="#9e9e0b" d="m33.925499,5.58c-0.471897,-0.56575 -1.122601,-0.92818 -1.829098,-1.01869c-0.706501,-0.09052 -1.419701,0.09716 -2.004702,0.52752c-0.5527,0.27747 -1.014799,0.72385 -1.3272,1.28197c-0.4184,0.2838 -0.7672,0.66937 -1.017399,1.12478c-0.2017,0.43096 -0.2752,0.91686 -0.210701,1.39321c0.0644,0.47636 0.2637,0.92064 0.5714,1.27391c0.1047,0.1383 0.2208,0.2665 0.346901,0.383101c0.0254,0.0673 0.0548,0.1329 0.087799,0.1964c0.961901,1.7339 3.362101,1.7634 4.818802,0.727c0.1521,-0.1126 0.295898,-0.2374 0.430099,-0.373301c0.380699,-0.216499 0.707798,-0.5257 0.954498,-0.9021c0.246799,-0.37647 0.4062,-0.80959 0.465202,-1.26399c0.184998,-1.20829 -0.527203,-2.50007 -1.285603,-3.34981z"/>
  <g id="svg_57">
   <path id="svg_58" fill="#FFC554" d="m31.552299,8.8067c1.012802,-1.32617 1.276402,-2.87829 0.587402,-3.47261c-0.689102,-0.59432 -2.062601,0 -3.075401,1.32617c-1.012701,1.32617 -1.281,2.8832 -0.5919,3.47264c0.6891,0.589399 2.048698,0 3.079899,-1.3262z"/>
  </g>
  <g id="svg_59">
   <path id="svg_60" fill="#9C5723" d="m33.536999,4.26854c-2.566698,-1.36546 -5.5495,1.52755 -6.344898,3.43822c-0.037001,0.08841 -0.041601,0.33891 -0.069401,0.402771c-0.171101,0.45188 0.319099,0.82026 0.7908,0.75149c0.7908,-0.05894 1.1793,0.22103 1.17,0.84482c0.0602,0.16157 0.1735,0.29446 0.319,0.37396c0.145399,0.0795 0.313099,0.100201 0.4718,0.0583c0.3862,-0.1348 0.791599,-0.19629 1.1978,-0.18176c0.157,0.01311 0.312901,-0.03731 0.436399,-0.14116c0.123501,-0.10384 0.205502,-0.253429 0.229502,-0.418779c0.1131,0.377569 0.245899,0.748199 0.397699,1.1101c0.0769,0.116 0.183701,0.205999 0.307598,0.2592c0.123802,0.0531 0.259502,0.0672 0.390701,0.0404c0.7122,-0.1032 1.022099,-1.05605 1.234802,-1.57179c0.080898,-0.226501 0.1367,-0.4622 0.166496,-0.70237c0.245102,0.15226 0.462402,0.333989 0.716801,0.49117c0.119102,0.0666 0.253601,0.095949 0.387901,0.08465c0.134201,-0.0113 0.262699,-0.062791 0.370499,-0.1485c1.660202,-1.56194 -0.6012,-3.86063 -2.1735,-4.69072z"/>
  </g>
  <path id="svg_61" fill="white" d="m27.8347,8.02598c0.074001,-0.15227 0.064701,-0.31926 -0.0277,-0.36838c-0.092499,-0.04912 -0.226599,0.03438 -0.3006,0.19156c-0.073999,0.157169 -0.064798,0.32417 0.0277,0.37329c0.092501,0.04912 0.2127,-0.0393 0.3006,-0.19647z"/>
  <path id="svg_62" fill="white" d="m29.698799,9.362c0.074001,-0.157181 0.060101,-0.324181 -0.0278,-0.37329c-0.0879,-0.04912 -0.226599,0.039289 -0.305199,0.19156c-0.0786,0.15226 -0.060101,0.32417 0.032398,0.37329c0.092501,0.04912 0.226601,-0.03438 0.3006,-0.19156z"/>
  <path id="svg_63" fill="white" d="m29.494699,8.84144c0.0324,-0.06385 0.0278,-0.13752 0,-0.15717c-0.0277,-0.01965 -0.092499,0 -0.1248,0.0835c-0.0324,0.0835 0,0.13262 0,0.15226c0,0.01965 0.0924,-0.01964 0.1248,-0.078589z"/>
  <path id="svg_64" fill="white" d="m35.3498,8.35017c-0.064701,-0.09332 -0.1618,-0.12771 -0.2173,-0.0835c-0.0555,0.044209 -0.036999,0.15226 0.027699,0.24068c0.0648,0.08841 0.1665,0.1277 0.217403,0.08349c0.050797,-0.0442 0.041599,-0.152261 -0.027802,-0.24067z"/>
  <path id="svg_65" fill="white" d="m32.630001,10.0397c0,-0.216129 -0.124802,-0.373309 -0.226601,-0.36348c-0.1017,0.00982 -0.1618,0.19647 -0.138699,0.407681c0.023098,0.2112 0.120197,0.3733 0.221996,0.3635c0.101704,-0.0099 0.1665,-0.1965 0.143303,-0.407701z"/>
  <path id="svg_66" fill="white" d="m32.316002,4.3273c-0.138702,-0.22594 -1.082102,0.0442 -2.113401,0.60905c-1.0313,0.56485 -1.7619,1.20338 -1.623201,1.44897c0.1387,0.24558 0.763102,-0.61888 1.7943,-1.18373c1.031301,-0.56485 2.076401,-0.64835 1.942303,-0.87429z"/>
  <path id="svg_67" fill="#d8d4d4" d="m30.7672,10.0788c-0.597101,-0.73204 -1.4277,-1.204121 -2.332401,-1.325601c-0.904699,-0.121469 -1.819799,0.11623 -2.569599,0.66748c-0.704599,0.35652 -1.2948,0.92532 -1.697201,1.63562c-0.538,0.3736 -0.9837,0.8789 -1.2995,1.4735c-0.582699,1.1887 -0.296,2.396899 0.4625,3.408801c0.139301,0.178699 0.2941,0.343198 0.4624,0.491099c0.037001,0.0835 0.064701,0.167 0.111,0.2505c1.230101,2.220098 4.3008,2.254499 6.159901,0.9284c0.196699,-0.1462 0.3808,-0.3106 0.550299,-0.491201c0.4869,-0.2759 0.905401,-0.6703 1.2213,-1.150899c0.315899,-0.4806 0.520199,-1.0339 0.5961,-1.6144c0.2174,-1.5374 -0.721399,-3.1927 -1.664799,-4.2733z"/>
  <path id="svg_68" fill="#edeaea" d="m29.9953,10.1626c-0.521601,-0.63448 -1.244501,-1.04352 -2.0313,-1.14946c-0.7868,-0.105929 -1.582901,0.09862 -2.237101,0.57483c-0.6147,0.309461 -1.129601,0.80503 -1.479799,1.42443c-0.4645,0.3211 -0.8498,0.7556 -1.1238,1.2672c-0.2215,0.4765 -0.302,1.013 -0.231001,1.539c0.071001,0.526 0.2901,1.0168 0.6287,1.4081c0.1159,0.1541 0.244301,0.2971 0.383801,0.4273c0.036999,0.0737 0.0602,0.1522 0.0972,0.221c1.0728,1.9352 3.750399,1.964701 5.368999,0.8104c0.1647,-0.125401 0.319399,-0.2651 0.4625,-0.4175c0.4259,-0.2337 0.794001,-0.570801 1.0744,-0.983801c0.280399,-0.412999 0.4652,-0.8904 0.539499,-1.393399c0.185001,-1.345901 -0.628899,-2.785001 -1.452099,-3.728101z"/>
  <g id="svg_69">
   <path id="svg_70" fill="#FFC554" d="m27.3533,13.7528c1.128401,-1.4735 1.4244,-3.2025 0.6567,-3.86555c-0.7677,-0.66308 -2.3123,0 -3.4268,1.47355c-1.1145,1.4735 -1.424301,3.2123 -0.661301,3.8655c0.7631,0.653299 2.302999,0 3.4314,-1.4735z"/>
  </g>
  <g id="svg_71">
   <path id="svg_72" fill="#9C5723" d="m29.399637,8.69883c-2.8626,-1.51772 -6.159901,1.699471 -7.066301,3.85077c-0.041599,0.0983 -0.0462,0.378201 -0.073999,0.4519c-0.194201,0.491199 0.3515,0.9087 0.8787,0.835c0.878599,-0.0687 1.313299,0.2456 1.3041,0.9382c0.0639,0.1823 0.1889,0.3332 0.351,0.4238c0.1621,0.0906 0.35,0.1146 0.5277,0.067301c0.429899,-0.155001 0.882599,-0.226501 1.336399,-0.211201c0.175501,0.015901 0.3501,-0.0398 0.4884,-0.1556c0.138201,-0.1159 0.229801,-0.2832 0.256201,-0.4682c0.123501,0.421399 0.270201,0.8347 0.439301,1.2378c0.0891,0.1296 0.2117,0.2288 0.352999,0.2855c0.141201,0.0567 0.295,0.068399 0.4424,0.0338c0.795502,-0.1081 1.137701,-1.169 1.387402,-1.7486c0.094099,-0.2505 0.1563,-0.5131 0.184999,-0.781c0.2775,0.171901 0.5411,0.368401 0.799999,0.5452c0.1325,0.0758 0.2827,0.1095 0.432701,0.0974c0.15,-0.012199 0.293499,-0.0699 0.413601,-0.1661c1.817499,-1.7486 -0.702902,-4.31256 -2.455601,-5.23597z"/>
  </g>
  <path id="svg_73" fill="white" d="m23.2152,12.8884c0.0833,-0.1768 0.069399,-0.3635 -0.032301,-0.4175c-0.101799,-0.054 -0.2544,0.044201 -0.337599,0.216101c-0.083302,0.1719 -0.069401,0.3635 0.0324,0.4175c0.1017,0.054 0.2451,-0.0442 0.3375,-0.2161z"/>
  <path id="svg_74" fill="white" d="m25.291401,14.3717c0.0833,-0.176801 0.064798,-0.358601 -0.037001,-0.4175c-0.1017,-0.059 -0.249701,0.0442 -0.332901,0.2161c-0.0833,0.171901 -0.069399,0.363501 0.032301,0.4175c0.101799,0.054 0.2544,-0.0442 0.337601,-0.2161z"/>
  <path id="svg_75" fill="white" d="m25.065399,13.7873c0.032301,-0.0737 0.0277,-0.1523 0,-0.1719c-0.0278,-0.0197 -0.1064,0 -0.1388,0.0884c-0.032299,0.0884 -0.032299,0.1473 0,0.1719c0.0324,0.0245 0.101801,-0.0148 0.1388,-0.0884z"/>
  <path id="svg_76" fill="white" d="m31.5847,13.2619c-0.0739,-0.0982 -0.1849,-0.1375 -0.2404,-0.0884c-0.0555,0.0491 -0.046299,0.1719 0.0277,0.2701c0.073999,0.0983 0.184999,0.1376 0.2451,0.0884c0.060101,-0.0491 0.041601,-0.1866 -0.0324,-0.2701z"/>
  <path id="svg_77" fill="white" d="m28.5564,15.1282c0,-0.2406 -0.1387,-0.4175 -0.249701,-0.402699c-0.111,0.0147 -0.184999,0.2161 -0.1618,0.4518c0.0231,0.2358 0.1387,0.4175 0.254301,0.4028c0.115599,-0.0147 0.184999,-0.2161 0.1572,-0.4519z"/>
  <path id="svg_78" fill="white" d="m28.208799,8.76252c-0.152599,-0.2505 -1.206999,0.05403 -2.353899,0.67782c-1.1469,0.62376 -1.965401,1.36546 -1.808201,1.59136c0.1572,0.226 0.850901,-0.6876 1.997801,-1.3163c1.1469,-0.628699 2.3076,-0.69747 2.164299,-0.95288z"/>
  <path id="svg_79" fill="#ce65ce" d="m26.295601,15.3788c-0.632601,-0.7691 -1.508801,-1.2649 -2.462702,-1.3935c-0.953798,-0.1285 -1.918798,0.1191 -2.712198,0.696c-0.7446,0.3754 -1.3675,0.977099 -1.789701,1.7289c-0.572399,0.392401 -1.048199,0.924601 -1.3874,1.552099c-0.610399,1.252501 -0.305199,2.5296 0.4625,3.5954c0.1408,0.177301 0.2955,0.3416 0.462502,0.491201c0.035299,0.0907 0.075499,0.1793 0.120199,0.2652c1.2995,2.342899 4.5413,2.3822 6.5021,0.982399c0.207399,-0.1453 0.4023,-0.3097 0.582701,-0.491199c0.516899,-0.294399 0.9606,-0.7152 1.2943,-1.2276c0.333698,-0.5124 0.5478,-1.101799 0.624899,-1.7194c0.286699,-1.5914 -0.7076,-3.3351 -1.697199,-4.479499z"/>
  <path id="svg_80" fill="#e883ef" d="m25.482,15.4672c-0.550501,-0.671 -1.314001,-1.103701 -2.1453,-1.216001c-0.831301,-0.1123 -1.672501,0.103701 -2.3636,0.607c-0.6422,0.3317 -1.180201,0.8537 -1.5492,1.503c-0.4935,0.3463 -0.9037,0.8106 -1.1978,1.3556c-0.235701,0.5065 -0.321701,1.076799 -0.246601,1.636099c0.0751,0.559301 0.3078,1.0814 0.6675,1.497601c0.1252,0.1609 0.262901,0.3104 0.411501,0.447001c0.0301,0.080399 0.0641,0.1591 0.101799,0.235699c1.1145,2.043301 3.963202,2.072802 5.651201,0.8547c0.1791,-0.1327 0.3491,-0.278799 0.508699,-0.437199c0.447001,-0.256001 0.8311,-0.6201 1.121099,-1.063002c0.290001,-0.442799 0.4778,-0.951899 0.5483,-1.486198c0.217402,-1.4195 -0.628899,-2.937201 -1.507599,-3.9343z"/>
  <g id="svg_81">
   <path id="svg_82" fill="#e883ef" d="m22.6882,19.2589c1.193199,-1.556999 1.503,-3.3842 0.698299,-4.081699c-0.8046,-0.6974 -2.427799,0 -3.621,1.562c-1.1931,1.561899 -1.502899,3.384199 -0.6936,4.0816c0.809301,0.697498 2.427801,-0.0049 3.616301,-1.561901z"/>
  </g>
  <g id="svg_83">
   <path id="svg_84" fill="#9C5723" d="m25.0282,13.9198c-3.024401,-1.6013 -6.506701,1.7977 -7.4547,4.0669c-0.0417,0.1031 -0.046299,0.3978 -0.0786,0.491199c-0.203499,0.535301 0.3745,0.9823 0.9249,0.8841c0.9249,-0.0688 1.3873,0.2603 1.3873,0.9823c0.073,0.186201 0.2066,0.338202 0.3764,0.4284c0.1698,0.0902 0.3645,0.112501 0.5485,0.062801c0.447399,-0.1562 0.9167,-0.229301 1.3874,-0.216101c0.185101,0.016001 0.368999,-0.042999 0.514799,-0.1651c0.145802,-0.122101 0.242802,-0.298201 0.2714,-0.493099c0.132401,0.445499 0.2868,0.8832 0.4624,1.311399c0.093599,0.1364 0.2227,0.2407 0.3715,0.3001c0.148701,0.059299 0.3106,0.0711 0.4655,0.033899c0.837101,-0.1178 1.2024,-1.2377 1.4522,-1.8468c0.097099,-0.265301 0.1623,-0.5425 0.194201,-0.8251c0.2913,0.1817 0.5734,0.3929 0.8416,0.5746c0.140499,0.080299 0.299799,0.1161 0.458799,0.103001c0.1591,-0.013 0.311199,-0.074301 0.4384,-0.176601c1.942299,-1.837 -0.716801,-4.5385 -2.562,-5.5159z"/>
  </g>
  <path id="svg_85" fill="white" d="m18.323099,18.340401c0.0879,-0.1817 0.074001,-0.378201 -0.036999,-0.437101c-0.111,-0.058899 -0.263601,0.044201 -0.3515,0.2309c-0.087801,0.186602 -0.074001,0.378201 0.0324,0.437101c0.1064,0.058899 0.2682,-0.044201 0.356098,-0.2309z"/>
  <path id="svg_86" fill="white" d="m20.515301,19.9074c0.0879,-0.181801 0.069399,-0.378201 -0.037001,-0.437201c-0.1064,-0.058899 -0.2682,0.044201 -0.3561,0.226c-0.087799,0.1817 -0.0693,0.383101 0.037001,0.442001c0.1064,0.059 0.2682,-0.044201 0.3561,-0.230801z"/>
  <path id="svg_87" fill="white" d="m20.2736,19.2932c0.037001,-0.0786 0.0278,-0.1621 0,-0.186699c-0.0277,-0.0245 -0.111,0 -0.1479,0.0982c-0.037001,0.098299 -0.0324,0.1572 0,0.181799c0.032301,0.0245 0.110901,-0.019699 0.1479,-0.0933z"/>
  <path id="svg_88" fill="white" d="m27.1549,18.7188c-0.0786,-0.108099 -0.1896,-0.1474 -0.254299,-0.098299c-0.0648,0.049099 -0.046301,0.181799 0.0324,0.284899c0.0786,0.1031 0.194199,0.1523 0.254299,0.0982c0.060101,-0.053999 0.0509,-0.1817 -0.0324,-0.2848z"/>
  <path id="svg_89" fill="white" d="m23.959801,20.702999c-0.0277,-0.2456 -0.143301,-0.437199 -0.263601,-0.4224c-0.120199,0.0147 -0.198799,0.225901 -0.171099,0.491199c0.0278,0.265202 0.147999,0.442001 0.2682,0.427301c0.1203,-0.014801 0.1943,-0.2456 0.1665,-0.496101z"/>
  <path id="svg_90" fill="white" d="m23.5849,13.9888c-0.1618,-0.2652 -1.2717,0.054 -2.487999,0.7171c-1.216202,0.6631 -2.067101,1.4146 -1.9053,1.6798c0.1619,0.265301 0.8972,-0.7269 2.108799,-1.39c1.211599,-0.6631 2.4464,-0.7515 2.2845,-1.0069z"/>
 </g>
</svg>