<svg width="256" height="256" xmlns="http://www.w3.org/2000/svg">
 <title>Sushi</title>
 <metadata id="metadata2478">image/svg+xmlSushioksmithhttps://openclipart.org/detail/316537</metadata>
 <defs>
  <linearGradient y2="0.5" x2="0.999995" y1="0.5" x1="0" id="Gradient_87">
   <stop id="stop633" stop-color="#2D2E2D" offset="0"/>
   <stop id="stop635" stop-color="#676B65" offset="0.521"/>
   <stop id="stop637" stop-color="#676B65" offset="0.824"/>
   <stop id="stop639" stop-color="#2D2E2D" offset="1"/>
  </linearGradient>
  <linearGradient y2="-0.604186" x2="0.500002" y1="1.367495" x1="0.500002" id="Gradient_88">
   <stop id="stop642" stop-color="#676B65" offset="0"/>
   <stop id="stop644" stop-color="#2D2E2D" offset="1"/>
  </linearGradient>
  <linearGradient y2="-0.594126" x2="0.469232" y1="1.493288" x1="0.517262" id="Gradient_89">
   <stop id="stop647" stop-color="#FFFFFE" offset="0"/>
   <stop id="stop649" stop-color="#DDE1E3" offset="0.618"/>
   <stop id="stop651" stop-color="#DDE1E3" offset="1"/>
  </linearGradient>
  <linearGradient y2="0.5" x2="0.999974" y1="0.5" x1="0" id="Gradient_90">
   <stop id="stop654" stop-color="#2D2E2D" offset="0"/>
   <stop id="stop656" stop-color="#676B65" offset="0.521"/>
   <stop id="stop658" stop-color="#676B65" offset="0.824"/>
   <stop id="stop660" stop-color="#2D2E2D" offset="1"/>
  </linearGradient>
  <linearGradient y2="-0.604186" x2="0.500002" y1="1.367495" x1="0.500002" id="Gradient_91">
   <stop id="stop663" stop-color="#676B65" offset="0"/>
   <stop id="stop665" stop-color="#2D2E2D" offset="1"/>
  </linearGradient>
  <linearGradient y2="-0.594126" x2="0.469231" y1="1.493365" x1="0.517262" id="Gradient_92">
   <stop id="stop668" stop-color="#FFFFFE" offset="0"/>
   <stop id="stop670" stop-color="#DDE1E3" offset="0.618"/>
   <stop id="stop672" stop-color="#DDE1E3" offset="1"/>
  </linearGradient>
  <linearGradient y2="0.5" x2="1.000004" y1="0.5" x1="0" id="Gradient_93">
   <stop id="stop675" stop-color="#2D2E2D" offset="0"/>
   <stop id="stop677" stop-color="#676B65" offset="0.521"/>
   <stop id="stop679" stop-color="#676B65" offset="0.824"/>
   <stop id="stop681" stop-color="#2D2E2D" offset="1"/>
  </linearGradient>
  <linearGradient y2="-0.604186" x2="0.49999" y1="1.367495" x1="0.49999" id="Gradient_94">
   <stop id="stop684" stop-color="#676B65" offset="0"/>
   <stop id="stop686" stop-color="#2D2E2D" offset="1"/>
  </linearGradient>
  <linearGradient y2="-0.594088" x2="0.469207" y1="1.493327" x1="0.517238" id="Gradient_95">
   <stop id="stop689" stop-color="#FFFFFE" offset="0"/>
   <stop id="stop691" stop-color="#DDE1E3" offset="0.618"/>
   <stop id="stop693" stop-color="#DDE1E3" offset="1"/>
  </linearGradient>
  <linearGradient y2="0.500011" x2="0.999995" y1="0.500011" x1="0" id="Gradient_96">
   <stop id="stop696" stop-color="#2D2E2D" offset="0"/>
   <stop id="stop698" stop-color="#676B65" offset="0.521"/>
   <stop id="stop700" stop-color="#676B65" offset="0.824"/>
   <stop id="stop702" stop-color="#2D2E2D" offset="1"/>
  </linearGradient>
  <linearGradient y2="-0.604234" x2="0.500002" y1="1.367507" x1="0.500002" id="Gradient_97">
   <stop id="stop705" stop-color="#676B65" offset="0"/>
   <stop id="stop707" stop-color="#2D2E2D" offset="1"/>
  </linearGradient>
  <linearGradient y2="-0.594076" x2="0.469232" y1="1.493272" x1="0.517262" id="Gradient_98">
   <stop id="stop710" stop-color="#FFFFFE" offset="0"/>
   <stop id="stop712" stop-color="#DDE1E3" offset="0.618"/>
   <stop id="stop714" stop-color="#DDE1E3" offset="1"/>
  </linearGradient>
  <linearGradient y2="0.500011" x2="0.999974" y1="0.500011" x1="0" id="Gradient_99">
   <stop id="stop717" stop-color="#2D2E2D" offset="0"/>
   <stop id="stop719" stop-color="#676B65" offset="0.521"/>
   <stop id="stop721" stop-color="#676B65" offset="0.824"/>
   <stop id="stop723" stop-color="#2D2E2D" offset="1"/>
  </linearGradient>
  <linearGradient y2="-0.604234" x2="0.500002" y1="1.367507" x1="0.500002" id="Gradient_100">
   <stop id="stop726" stop-color="#676B65" offset="0"/>
   <stop id="stop728" stop-color="#2D2E2D" offset="1"/>
  </linearGradient>
  <linearGradient y2="-0.594076" x2="0.469231" y1="1.493272" x1="0.517262" id="Gradient_101">
   <stop id="stop731" stop-color="#FFFFFE" offset="0"/>
   <stop id="stop733" stop-color="#DDE1E3" offset="0.618"/>
   <stop id="stop735" stop-color="#DDE1E3" offset="1"/>
  </linearGradient>
  <linearGradient y2="0.500011" x2="1.000004" y1="0.500011" x1="0" id="Gradient_102">
   <stop id="stop738" stop-color="#2D2E2D" offset="0"/>
   <stop id="stop740" stop-color="#676B65" offset="0.521"/>
   <stop id="stop742" stop-color="#676B65" offset="0.824"/>
   <stop id="stop744" stop-color="#2D2E2D" offset="1"/>
  </linearGradient>
  <linearGradient y2="-0.604234" x2="0.49999" y1="1.367507" x1="0.49999" id="Gradient_103">
   <stop id="stop747" stop-color="#676B65" offset="0"/>
   <stop id="stop749" stop-color="#2D2E2D" offset="1"/>
  </linearGradient>
  <linearGradient y2="-0.594076" x2="0.469236" y1="1.493272" x1="0.517268" id="Gradient_104">
   <stop id="stop752" stop-color="#FFFFFE" offset="0"/>
   <stop id="stop754" stop-color="#DDE1E3" offset="0.618"/>
   <stop id="stop756" stop-color="#DDE1E3" offset="1"/>
  </linearGradient>
 </defs>
 <g>
  <title>background</title>
  <rect fill="none" id="canvas_background" height="402" width="582" y="-1" x="-1"/>
 </g>
 <g>
  <title>Layer 1</title>
  <g transform="matrix(2.24385 0 0 2.24385 -318.965 -295.292)" id="svg_68">
   <path fill="#999999" id="svg_1" d="m199.581329,149.237259c0.453003,0.884003 -0.311996,2.175003 -1.714005,2.895004c-1.395996,0.735001 -2.895004,0.615997 -3.347992,-0.259995c-0.452011,-0.883011 0.311996,-2.167007 1.707001,-2.895004c1.395996,-0.733994 2.901993,-0.623001 3.354996,0.259995"/>
   <path fill="#999999" id="svg_2" d="m179.61734,209.080261c0.347992,-1.432999 0.095993,-2.731995 0.095993,-2.731995l-0.095993,-1.542999l0,-34.964005l-37.436996,0l-0.475006,30.378006l0.059998,7.539993c0,0 -0.052002,1.871002 1.358002,3.524994c1.410004,1.641006 6.828003,2.591003 6.828003,2.591003l21.427002,-0.237991c0,0 5.365997,-0.653 7.065994,-2.353012c0.488998,-0.496994 0.809006,-1.067993 1.016006,-1.653992l0.156998,0l0,-0.550003z"/>
   <path fill="#999999" id="svg_3" d="m178.169342,173.158264c-3.028,3.279999 -9.143997,3.511002 -9.143997,3.511002l-17.42601,0c0,0 -5.886002,-0.468002 -8.208984,-3.511002c-1.291,-1.699005 -1.335999,-3.473999 -1.335999,-3.473999l1.23999,-15.845001c0,0 0.326004,-2.561005 1.951004,-3.955002c1.626007,-1.380997 5.106995,-1.388992 5.106995,-1.388992l19.705002,0c0,0 4.171005,-0.230011 6.256989,1.166c2.093002,1.393997 1.996017,4.875992 1.996017,4.875992l1.112991,13.766998c0,0 0.527008,2.923996 -1.253998,4.854004z"/>
   <path fill="#999999" id="svg_4" d="m176.71434,172.275269c-2.768005,3.006012 -8.378998,3.214005 -8.378998,3.214005l-15.965012,0c0,0 -5.394989,-0.431 -7.524994,-3.214005c-1.186996,-1.557999 -1.225006,-3.18399 -1.225006,-3.18399l1.136002,-14.517014c0,0 0.296997,-2.346008 1.78801,-3.621994c1.491989,-1.276001 4.675995,-1.276001 4.675995,-1.276001l18.057999,0c0,0 3.822006,-0.216003 5.737,1.067993c1.914001,1.276001 1.833008,4.468002 1.833008,4.468002l1.016998,12.610001c0,0 0.481995,2.686996 -1.151001,4.453003z"/>
   <path fill="#999999" id="svg_5" d="m150.411331,161.387268c0.771988,1.358002 0.653,2.873001 -0.251999,3.384003c-0.906006,0.50499 -2.256012,-0.177002 -3.028,-1.536011c-0.764008,-1.358002 -0.653,-2.871994 0.258987,-3.384995c0.906006,-0.511002 2.257004,0.179001 3.021011,1.537003"/>
   <path fill="#999999" id="svg_6" d="m150.404343,169.150269c-0.200989,1.536011 -1.194992,2.687012 -2.22699,2.554001c-1.031006,-0.134003 -1.707001,-1.491989 -1.506012,-3.042999c0.200012,-1.543991 1.195007,-2.694 2.226013,-2.554001c1.031998,0.126007 1.706985,1.492004 1.506989,3.042999"/>
   <path fill="#999999" id="svg_7" d="m156.059341,166.315262c-0.200012,1.550995 -1.194,2.701004 -2.234009,2.561005c-1.024002,-0.126007 -1.69899,-1.492004 -1.505997,-3.042999c0.199997,-1.536011 1.194,-2.686996 2.225998,-2.561005c1.039001,0.134003 1.707001,1.499008 1.514008,3.042999"/>
   <path fill="#999999" id="svg_8" d="m153.46933,157.602264c-0.199997,1.550995 -1.201996,2.694 -2.227005,2.567993c-1.039001,-0.133987 -1.707001,-1.498993 -1.513992,-3.042999c0.200989,-1.550995 1.202988,-2.694992 2.22699,-2.567993c1.031998,0.132996 1.707001,1.498993 1.514008,3.042999"/>
   <path fill="#999999" id="svg_9" d="m158.175339,161.142258c-0.193008,1.535995 -1.195007,2.686996 -2.227005,2.560989c-1.031998,-0.141998 -1.707001,-1.498993 -1.507004,-3.042999c0.201004,-1.552002 1.195007,-2.701996 2.227005,-2.560989c1.031998,0.125992 1.707001,1.491989 1.507004,3.042999"/>
   <path fill="#999999" id="svg_10" d="m166.814331,166.975266l-13.100006,0.328003l2.285995,-10.458008l11.021011,-1.320999l-0.207001,11.451004"/>
   <path fill="#999999" id="svg_11" d="m156.000336,156.845261l11.020996,-1.320999l-0.207001,11.451004c0,0 -1.819,-9.447006 -2.768997,-9.617996c-0.957001,-0.171005 -8.044998,-0.512009 -8.044998,-0.512009"/>
   <path fill="#999999" id="svg_12" d="m154.515335,164.029266l-0.080994,0.319l-0.720001,2.955002l4.348999,-0.149002c0,0 -3.376999,-1.136002 -3.376999,-1.654999"/>
   <path fill="#999999" id="svg_13" d="m216.822342,209.080261c0.348999,-1.432999 0.097,-2.731995 0.097,-2.731995l-0.097,-1.542999l0,-34.964005l-37.436005,0l-0.475006,30.378006l0.060013,7.539993c0,0 -0.052002,1.871002 1.357986,3.524994c1.410004,1.641006 6.828003,2.591003 6.828003,2.591003l21.427002,-0.237991c0,0 5.365997,-0.653 7.065994,-2.353012c0.489014,-0.496994 0.808014,-1.067993 1.016006,-1.653992l0.156006,0l0,-0.550003z"/>
   <path fill="#999999" id="svg_14" d="m215.375336,173.158264c-3.028,3.279999 -9.143997,3.511002 -9.143997,3.511002l-17.427002,0c0,0 -5.884995,-0.468002 -8.207993,-3.511002c-1.292007,-1.699005 -1.336014,-3.473999 -1.336014,-3.473999l1.239014,-15.845001c0,0 0.326996,-2.561005 1.951996,-3.955002c1.625992,-1.380997 5.106995,-1.388992 5.106995,-1.388992l19.705002,0c0,0 4.171005,-0.230011 6.264008,1.166c2.085999,1.393997 1.988998,4.875992 1.988998,4.875992l1.112991,13.766998c0,0 0.527008,2.923996 -1.253998,4.854004z"/>
   <path fill="#999999" id="svg_15" d="m213.920334,172.275269c-2.76799,3.006012 -8.378998,3.214005 -8.378998,3.214005l-15.964996,0c0,0 -5.395004,-0.431 -7.518005,-3.214005c-1.188004,-1.557999 -1.231995,-3.18399 -1.231995,-3.18399l1.136002,-14.517014c0,0 0.304001,-2.346008 1.787994,-3.621994c1.492004,-1.276001 4.675995,-1.276001 4.675995,-1.276001l18.057999,0c0,0 3.822006,-0.216003 5.737015,1.067993c1.914993,1.276001 1.832993,4.468002 1.832993,4.468002l1.016998,12.610001c0,0 0.481995,2.686996 -1.151001,4.453003z"/>
   <path fill="#999999" id="svg_16" d="m187.624344,161.387268c0.764999,1.358002 0.645996,2.873001 -0.259003,3.384003c-0.905991,0.50499 -2.255997,-0.177002 -3.020996,-1.536011c-0.772003,-1.358002 -0.653,-2.871994 0.251999,-3.384995c0.906006,-0.511002 2.257004,0.179001 3.028,1.537003"/>
   <path fill="#999999" id="svg_17" d="m187.610336,169.150269c-0.201004,1.536011 -1.195007,2.687012 -2.227005,2.554001c-1.024002,-0.134003 -1.707001,-1.491989 -1.506989,-3.042999c0.200989,-1.543991 1.195999,-2.694 2.22699,-2.554001c1.031998,0.126007 1.707001,1.492004 1.507004,3.042999"/>
   <path fill="#999999" id="svg_18" d="m193.265335,166.315262c-0.199997,1.550995 -1.194992,2.701004 -2.227005,2.561005c-1.030991,-0.126007 -1.707001,-1.492004 -1.513,-3.042999c0.200012,-1.536011 1.202011,-2.686996 2.226013,-2.561005c1.038986,0.134003 1.707001,1.499008 1.513992,3.042999"/>
   <path fill="#999999" id="svg_19" d="m190.675339,157.602264c-0.201004,1.550995 -1.195007,2.694 -2.225998,2.567993c-1.040009,-0.133987 -1.707001,-1.498993 -1.507004,-3.042999c0.192993,-1.550995 1.194992,-2.694992 2.225998,-2.567993c1.025009,0.132996 1.707001,1.498993 1.507004,3.042999"/>
   <path fill="#999999" id="svg_20" d="m195.380341,161.142258c-0.193008,1.535995 -1.195007,2.686996 -2.225998,2.560989c-1.032013,-0.141998 -1.707001,-1.498993 -1.507004,-3.042999c0.199997,-1.552002 1.194992,-2.701996 2.227005,-2.560989c1.031998,0.125992 1.706985,1.491989 1.505997,3.042999"/>
   <path fill="#999999" id="svg_21" d="m204.019333,166.975266l-13.098999,0.328003l2.285995,-10.458008l11.021011,-1.320999l-0.208008,11.451004"/>
   <path fill="#999999" id="svg_22" d="m193.206329,156.845261l11.020996,-1.320999l-0.207993,11.451004c0,0 -1.818008,-9.447006 -2.768005,-9.617996c-0.957001,-0.171005 -8.044998,-0.512009 -8.044998,-0.512009"/>
   <path fill="#999999" id="svg_23" d="m191.721344,164.029266l-0.080994,0.319l-0.720001,2.955002l4.348999,-0.149002c0,0 -3.376999,-1.136002 -3.376999,-1.654999"/>
   <path fill="#999999" id="svg_24" d="m255.617325,209.080261c0.339996,-1.432999 0.088013,-2.731995 0.088013,-2.731995l-0.088013,-1.542999l0,-34.964005l-37.444,0l-0.468002,30.378006l0.052002,7.539993c0,0 -0.052002,1.871002 1.359009,3.524994c1.409988,1.641006 6.827988,2.591003 6.827988,2.591003l21.42601,-0.237991c0,0 5.366989,-0.653 7.065994,-2.353012c0.490005,-0.496994 0.809006,-1.067993 1.016998,-1.653992l0.164001,0l0,-0.550003z"/>
   <path fill="#999999" id="svg_25" d="m254.161331,173.158264c-3.020004,3.279999 -9.143005,3.511002 -9.143005,3.511002l-17.427002,0c0,0 -5.877991,-0.468002 -8.201004,-3.511002c-1.298996,-1.699005 -1.335999,-3.473999 -1.335999,-3.473999l1.23201,-15.845001c0,0 0.334,-2.561005 1.959,-3.955002c1.619003,-1.380997 5.099991,-1.388992 5.099991,-1.388992l19.70401,0c0,0 4.172012,-0.230011 6.264999,1.166c2.085007,1.393997 1.988998,4.875992 1.988998,4.875992l1.113007,13.766998c0,0 0.527008,2.923996 -1.255005,4.854004z"/>
   <path fill="#999999" id="svg_26" d="m252.71434,172.275269c-2.775009,3.006012 -8.387009,3.214005 -8.387009,3.214005l-15.963989,0c0,0 -5.395004,-0.431 -7.518005,-3.214005c-1.186996,-1.557999 -1.231995,-3.18399 -1.231995,-3.18399l1.134995,-14.517014c0,0 0.304993,-2.346008 1.789001,-3.621994c1.492004,-1.276001 4.675995,-1.276001 4.675995,-1.276001l18.065002,0c0,0 3.822006,-0.216003 5.737,1.067993c1.906998,1.276001 1.824997,4.468002 1.824997,4.468002l1.016998,12.610001c0,0 0.483002,2.686996 -1.14299,4.453003z"/>
   <path fill="#999999" id="svg_27" d="m226.411331,161.387268c0.764999,1.358002 0.645996,2.873001 -0.259003,3.384003c-0.899002,0.50499 -2.257004,-0.177002 -3.020996,-1.536011c-0.764008,-1.358002 -0.653,-2.871994 0.251999,-3.384995c0.904999,-0.511002 2.263992,0.179001 3.028,1.537003"/>
   <path fill="#999999" id="svg_28" d="m226.396332,169.150269c-0.192993,1.536011 -1.194992,2.687012 -2.225998,2.554001c-1.024002,-0.134003 -1.707001,-1.491989 -1.507004,-3.042999c0.201004,-1.543991 1.203003,-2.694 2.227005,-2.554001c1.039001,0.126007 1.707001,1.492004 1.505997,3.042999"/>
   <path fill="#999999" id="svg_29" d="m232.052338,166.315262c-0.193008,1.550995 -1.195007,2.701004 -2.227005,2.561005c-1.031998,-0.126007 -1.707001,-1.492004 -1.505997,-3.042999c0.199997,-1.536011 1.194,-2.686996 2.225998,-2.561005c1.031006,0.134003 1.707001,1.499008 1.507004,3.042999"/>
   <path fill="#999999" id="svg_30" d="m229.461334,157.602264c-0.199997,1.550995 -1.194,2.694 -2.225998,2.567993c-1.031998,-0.133987 -1.707001,-1.498993 -1.507004,-3.042999c0.201004,-1.550995 1.195007,-2.694992 2.227005,-2.567993c1.031998,0.132996 1.707001,1.498993 1.505997,3.042999"/>
   <path fill="#999999" id="svg_31" d="m234.167343,161.142258c-0.192993,1.535995 -1.194992,2.686996 -2.225998,2.560989c-1.024994,-0.141998 -1.707001,-1.498993 -1.507004,-3.042999c0.200012,-1.552002 1.202011,-2.701996 2.225998,-2.560989c1.040009,0.125992 1.707001,1.491989 1.507004,3.042999"/>
   <path fill="#999999" id="svg_32" d="m242.806335,166.975266l-13.091995,0.328003l2.278,-10.458008l11.022003,-1.320999l-0.208008,11.451004"/>
   <path fill="#999999" id="svg_33" d="m231.99234,156.845261l11.022003,-1.320999l-0.208008,11.451004c0,0 -1.817993,-9.447006 -2.768997,-9.617996c-0.957001,-0.171005 -8.044998,-0.512009 -8.044998,-0.512009"/>
   <path fill="#999999" id="svg_34" d="m230.508331,164.029266l-0.074005,0.319l-0.720001,2.955002l4.341995,-0.149002c0,0 -3.376999,-1.136002 -3.376999,-1.654999"/>
   <path fill="#999999" id="svg_35" d="m179.61734,239.16127c0.347992,-1.425003 0.095993,-2.723999 0.095993,-2.723999l-0.095993,-1.543991l0,-34.965012l-37.436996,0l-0.475006,30.378006l0.059998,7.541c0,0 -0.052002,1.871002 1.358002,3.526001c1.410004,1.638992 6.828003,2.589996 6.828003,2.589996l21.427002,-0.237991c0,0 5.365997,-0.653 7.065994,-2.352005c0.488998,-0.505005 0.809006,-1.070007 1.016006,-1.654999l0.156998,0l0,-0.557007z"/>
   <path fill="#999999" id="svg_36" d="m178.169342,203.239258c-3.028,3.287994 -9.143997,3.51799 -9.143997,3.51799l-17.42601,0c0,0 -5.886002,-0.474991 -8.208984,-3.51799c-1.291,-1.699005 -1.335999,-3.466003 -1.335999,-3.466003l1.23999,-15.845001c0,0 0.326004,-2.561005 1.951004,-3.957001c1.626007,-1.380005 5.106995,-1.386993 5.106995,-1.386993l19.705002,0c0,0 4.171005,-0.231003 6.256989,1.164993c2.093002,1.395004 1.996017,4.869003 1.996017,4.869003l1.112991,13.774002c0,0 0.527008,2.916992 -1.253998,4.847z"/>
   <path fill="#999999" id="svg_37" d="m176.71434,202.356262c-2.768005,3.013 -8.378998,3.221008 -8.378998,3.221008l-15.965012,0c0,0 -5.394989,-0.431 -7.524994,-3.221008c-1.186996,-1.557999 -1.225006,-3.177002 -1.225006,-3.177002l1.136002,-14.516998c0,0 0.296997,-2.352997 1.78801,-3.621994c1.491989,-1.277008 4.675995,-1.277008 4.675995,-1.277008l18.057999,0c0,0 3.822006,-0.213989 5.737,1.061996c1.914001,1.284012 1.833008,4.476013 1.833008,4.476013l1.016998,12.60199c0,0 0.481995,2.693008 -1.151001,4.453003z"/>
   <path fill="#999999" id="svg_38" d="m150.411331,191.475266c0.771988,1.358994 0.653,2.865997 -0.251999,3.376999c-0.906006,0.511993 -2.256012,-0.171005 -3.028,-1.529007c-0.764008,-1.36499 -0.653,-2.871994 0.258987,-3.383987c0.906006,-0.512009 2.257004,0.17099 3.021011,1.535995"/>
   <path fill="#999999" id="svg_39" d="m150.404343,199.231262c-0.200989,1.544006 -1.194992,2.695007 -2.22699,2.561005c-1.031006,-0.134003 -1.707001,-1.492004 -1.506012,-3.042999c0.200012,-1.544006 1.195007,-2.701004 2.226013,-2.561005c1.031998,0.134003 1.706985,1.492004 1.506989,3.042999"/>
   <path fill="#999999" id="svg_40" d="m156.059341,196.403259c-0.200012,1.552002 -1.194,2.702011 -2.234009,2.561005c-1.024002,-0.126007 -1.69899,-1.492004 -1.505997,-3.042999c0.199997,-1.535995 1.194,-2.694 2.225998,-2.561005c1.039001,0.134003 1.707001,1.492004 1.514008,3.042999"/>
   <path fill="#999999" id="svg_41" d="m153.46933,187.690262c-0.199997,1.550995 -1.201996,2.695007 -2.227005,2.561005c-1.039001,-0.126007 -1.707001,-1.492004 -1.513992,-3.042999c0.200989,-1.55101 1.202988,-2.686996 2.22699,-2.561005c1.031998,0.134003 1.707001,1.499008 1.514008,3.042999"/>
   <path fill="#999999" id="svg_42" d="m158.175339,191.223267c-0.193008,1.542999 -1.195007,2.694 -2.227005,2.567993c-1.031998,-0.140991 -1.707001,-1.498993 -1.507004,-3.042999c0.201004,-1.550995 1.195007,-2.701004 2.227005,-2.567993c1.031998,0.132996 1.707001,1.498993 1.507004,3.042999"/>
   <path fill="#999999" id="svg_43" d="m166.814331,197.06427l-13.100006,0.320007l2.285995,-10.451004l11.021011,-1.320999l-0.207001,11.451996"/>
   <path fill="#999999" id="svg_44" d="m156.000336,186.933258l11.020996,-1.320999l-0.207001,11.451996c0,0 -1.819,-9.447998 -2.768997,-9.626007c-0.957001,-0.164001 -8.044998,-0.50499 -8.044998,-0.50499"/>
   <path fill="#999999" id="svg_45" d="m154.515335,194.11026l-0.080994,0.326004l-0.720001,2.947998l4.348999,-0.149002c0,0 -3.376999,-1.128998 -3.376999,-1.647995"/>
   <path fill="#999999" id="svg_46" d="m216.822342,239.16127c0.348999,-1.425003 0.097,-2.723999 0.097,-2.723999l-0.097,-1.543991l0,-34.965012l-37.436005,0l-0.475006,30.378006l0.060013,7.541c0,0 -0.052002,1.871002 1.357986,3.526001c1.410004,1.638992 6.828003,2.589996 6.828003,2.589996l21.427002,-0.237991c0,0 5.365997,-0.653 7.065994,-2.352005c0.489014,-0.505005 0.808014,-1.070007 1.016006,-1.654999l0.156006,0l0,-0.557007z"/>
   <path fill="#999999" id="svg_47" d="m215.375336,203.239258c-3.028,3.287994 -9.143997,3.51799 -9.143997,3.51799l-17.427002,0c0,0 -5.884995,-0.474991 -8.207993,-3.51799c-1.292007,-1.699005 -1.336014,-3.466003 -1.336014,-3.466003l1.239014,-15.845001c0,0 0.326996,-2.561005 1.951996,-3.957001c1.625992,-1.380005 5.106995,-1.386993 5.106995,-1.386993l19.705002,0c0,0 4.171005,-0.231003 6.264008,1.164993c2.085999,1.395004 1.988998,4.869003 1.988998,4.869003l1.112991,13.774002c0,0 0.527008,2.916992 -1.253998,4.847z"/>
   <path fill="#999999" id="svg_48" d="m213.920334,202.356262c-2.76799,3.013 -8.378998,3.221008 -8.378998,3.221008l-15.964996,0c0,0 -5.395004,-0.431 -7.518005,-3.221008c-1.188004,-1.557999 -1.231995,-3.177002 -1.231995,-3.177002l1.136002,-14.516998c0,0 0.304001,-2.352997 1.787994,-3.621994c1.492004,-1.277008 4.675995,-1.277008 4.675995,-1.277008l18.057999,0c0,0 3.822006,-0.213989 5.737015,1.061996c1.914993,1.284012 1.832993,4.476013 1.832993,4.476013l1.016998,12.60199c0,0 0.481995,2.693008 -1.151001,4.453003z"/>
   <path fill="#999999" id="svg_49" d="m187.624344,191.475266c0.764999,1.358994 0.645996,2.865997 -0.259003,3.376999c-0.905991,0.511993 -2.255997,-0.171005 -3.020996,-1.529007c-0.772003,-1.36499 -0.653,-2.871994 0.251999,-3.383987c0.906006,-0.512009 2.257004,0.17099 3.028,1.535995"/>
   <path fill="#999999" id="svg_50" d="m187.610336,199.231262c-0.201004,1.544006 -1.195007,2.695007 -2.227005,2.561005c-1.024002,-0.134003 -1.707001,-1.492004 -1.506989,-3.042999c0.200989,-1.544006 1.195999,-2.701004 2.22699,-2.561005c1.031998,0.134003 1.707001,1.492004 1.507004,3.042999"/>
   <path fill="#999999" id="svg_51" d="m193.265335,196.403259c-0.199997,1.552002 -1.194992,2.702011 -2.227005,2.561005c-1.030991,-0.126007 -1.707001,-1.492004 -1.513,-3.042999c0.200012,-1.535995 1.202011,-2.694 2.226013,-2.561005c1.038986,0.134003 1.707001,1.492004 1.513992,3.042999"/>
   <path fill="#999999" id="svg_52" d="m190.675339,187.690262c-0.201004,1.550995 -1.195007,2.695007 -2.225998,2.561005c-1.040009,-0.126007 -1.707001,-1.492004 -1.507004,-3.042999c0.192993,-1.55101 1.194992,-2.686996 2.225998,-2.561005c1.025009,0.134003 1.707001,1.499008 1.507004,3.042999"/>
   <path fill="#999999" id="svg_53" d="m195.380341,191.223267c-0.193008,1.542999 -1.195007,2.694 -2.225998,2.567993c-1.032013,-0.140991 -1.707001,-1.498993 -1.507004,-3.042999c0.199997,-1.550995 1.194992,-2.701004 2.227005,-2.567993c1.031998,0.132996 1.706985,1.498993 1.505997,3.042999"/>
   <path fill="#999999" id="svg_54" d="m204.019333,197.06427l-13.098999,0.320007l2.285995,-10.451004l11.021011,-1.320999l-0.208008,11.451996"/>
   <path fill="#999999" id="svg_55" d="m193.206329,186.933258l11.020996,-1.320999l-0.207993,11.451996c0,0 -1.818008,-9.447998 -2.768005,-9.626007c-0.957001,-0.164001 -8.044998,-0.50499 -8.044998,-0.50499"/>
   <path fill="#999999" id="svg_56" d="m191.721344,194.11026l-0.080994,0.326004l-0.720001,2.947998l4.348999,-0.149002c0,0 -3.376999,-1.128998 -3.376999,-1.647995"/>
   <path fill="#999999" id="svg_57" d="m255.617325,239.16127c0.339996,-1.425003 0.088013,-2.723999 0.088013,-2.723999l-0.088013,-1.543991l0,-34.965012l-37.444,0l-0.468002,30.378006l0.052002,7.541c0,0 -0.052002,1.871002 1.359009,3.526001c1.409988,1.638992 6.827988,2.589996 6.827988,2.589996l21.42601,-0.237991c0,0 5.366989,-0.653 7.065994,-2.352005c0.490005,-0.505005 0.809006,-1.070007 1.016998,-1.654999l0.164001,0l0,-0.557007z"/>
   <path fill="#999999" id="svg_58" d="m254.161331,203.239258c-3.020004,3.287994 -9.143005,3.51799 -9.143005,3.51799l-17.427002,0c0,0 -5.877991,-0.474991 -8.201004,-3.51799c-1.298996,-1.699005 -1.335999,-3.466003 -1.335999,-3.466003l1.23201,-15.845001c0,0 0.334,-2.561005 1.959,-3.957001c1.619003,-1.380005 5.099991,-1.386993 5.099991,-1.386993l19.70401,0c0,0 4.172012,-0.231003 6.264999,1.164993c2.085007,1.395004 1.988998,4.869003 1.988998,4.869003l1.113007,13.774002c0,0 0.527008,2.916992 -1.255005,4.847z"/>
   <path fill="#999999" id="svg_59" d="m252.71434,202.356262c-2.775009,3.013 -8.387009,3.221008 -8.387009,3.221008l-15.963989,0c0,0 -5.395004,-0.431 -7.518005,-3.221008c-1.186996,-1.557999 -1.231995,-3.177002 -1.231995,-3.177002l1.134995,-14.516998c0,0 0.304993,-2.352997 1.789001,-3.621994c1.492004,-1.277008 4.675995,-1.277008 4.675995,-1.277008l18.065002,0c0,0 3.822006,-0.213989 5.737,1.061996c1.906998,1.284012 1.824997,4.476013 1.824997,4.476013l1.016998,12.60199c0,0 0.483002,2.693008 -1.14299,4.453003z"/>
   <path fill="#999999" id="svg_60" d="m226.411331,191.475266c0.764999,1.358994 0.645996,2.865997 -0.259003,3.376999c-0.899002,0.511993 -2.257004,-0.171005 -3.020996,-1.529007c-0.764008,-1.36499 -0.653,-2.871994 0.251999,-3.383987c0.904999,-0.512009 2.263992,0.17099 3.028,1.535995"/>
   <path fill="#999999" id="svg_61" d="m226.396332,199.231262c-0.192993,1.544006 -1.194992,2.695007 -2.225998,2.561005c-1.024002,-0.134003 -1.707001,-1.492004 -1.507004,-3.042999c0.201004,-1.544006 1.203003,-2.701004 2.227005,-2.561005c1.039001,0.134003 1.707001,1.492004 1.505997,3.042999"/>
   <path fill="#999999" id="svg_62" d="m232.052338,196.403259c-0.193008,1.552002 -1.195007,2.702011 -2.227005,2.561005c-1.031998,-0.126007 -1.707001,-1.492004 -1.505997,-3.042999c0.199997,-1.535995 1.194,-2.694 2.225998,-2.561005c1.031006,0.134003 1.707001,1.492004 1.507004,3.042999"/>
   <path fill="#999999" id="svg_63" d="m229.461334,187.690262c-0.199997,1.550995 -1.194,2.695007 -2.225998,2.561005c-1.031998,-0.126007 -1.707001,-1.492004 -1.507004,-3.042999c0.201004,-1.55101 1.195007,-2.686996 2.227005,-2.561005c1.031998,0.134003 1.707001,1.499008 1.505997,3.042999"/>
   <path fill="#999999" id="svg_64" d="m234.167343,191.223267c-0.192993,1.542999 -1.194992,2.694 -2.225998,2.567993c-1.024994,-0.140991 -1.707001,-1.498993 -1.507004,-3.042999c0.200012,-1.550995 1.202011,-2.701004 2.225998,-2.567993c1.040009,0.132996 1.707001,1.498993 1.507004,3.042999"/>
   <path fill="#999999" id="svg_65" d="m242.806335,197.06427l-13.091995,0.320007l2.278,-10.451004l11.022003,-1.320999l-0.208008,11.451996"/>
   <path fill="#999999" id="svg_66" d="m231.99234,186.933258l11.022003,-1.320999l-0.208008,11.451996c0,0 -1.817993,-9.447998 -2.768997,-9.626007c-0.957001,-0.164001 -8.044998,-0.50499 -8.044998,-0.50499"/>
   <path fill="#999999" id="svg_67" d="m230.508331,194.11026l-0.074005,0.326004l-0.720001,2.947998l4.341995,-0.149002c0,0 -3.376999,-1.128998 -3.376999,-1.647995"/>
  </g>
  <g transform="matrix(2.24385 0 0 2.24385 -318.965 -295.292)" id="g2163">
   <path fill="#fffffe" id="path1235" d="m200.026993,141.660995c0.453003,0.884003 -0.311996,2.175003 -1.714005,2.895004c-1.395996,0.735001 -2.895004,0.615997 -3.347992,-0.259995c-0.452011,-0.883011 0.311996,-2.167007 1.707001,-2.895004c1.395996,-0.733994 2.901993,-0.623001 3.354996,0.259995"/>
   <path fill="url(#Gradient_87)" id="path2341" d="m180.063004,201.503998c0.347992,-1.432999 0.095993,-2.731995 0.095993,-2.731995l-0.095993,-1.542999l0,-34.964005l-37.436996,0l-0.475006,30.378006l0.059998,7.539993c0,0 -0.052002,1.871002 1.358002,3.524994c1.410004,1.641006 6.828003,2.591003 6.828003,2.591003l21.427002,-0.237991c0,0 5.365997,-0.653 7.065994,-2.353012c0.488998,-0.496994 0.809006,-1.067993 1.016006,-1.653992l0.156998,0l0,-0.550003z"/>
   <path fill="url(#Gradient_88)" id="path2343" d="m178.615005,165.582001c-3.028,3.279999 -9.143997,3.511002 -9.143997,3.511002l-17.42601,0c0,0 -5.886002,-0.468002 -8.208984,-3.511002c-1.291,-1.699005 -1.335999,-3.473999 -1.335999,-3.473999l1.23999,-15.845001c0,0 0.326004,-2.561005 1.951004,-3.955002c1.626007,-1.380997 5.106995,-1.388992 5.106995,-1.388992l19.705002,0c0,0 4.171005,-0.230011 6.256989,1.166c2.093002,1.393997 1.996017,4.875992 1.996017,4.875992l1.112991,13.766998c0,0 0.527008,2.923996 -1.253998,4.854004z"/>
   <path fill="url(#Gradient_89)" id="path2345" d="m177.160004,164.699005c-2.768005,3.006012 -8.378998,3.214005 -8.378998,3.214005l-15.965012,0c0,0 -5.394989,-0.431 -7.524994,-3.214005c-1.186996,-1.557999 -1.225006,-3.18399 -1.225006,-3.18399l1.136002,-14.517014c0,0 0.296997,-2.346008 1.78801,-3.621994c1.491989,-1.276001 4.675995,-1.276001 4.675995,-1.276001l18.057999,0c0,0 3.822006,-0.216003 5.737,1.067993c1.914001,1.276001 1.833008,4.468002 1.833008,4.468002l1.016998,12.610001c0,0 0.481995,2.686996 -1.151001,4.453003z"/>
   <path fill="#fffffe" id="path2347" d="m150.856995,153.811005c0.771988,1.358002 0.653,2.873001 -0.251999,3.384003c-0.906006,0.50499 -2.256012,-0.177002 -3.028,-1.536011c-0.764008,-1.358002 -0.653,-2.871994 0.258987,-3.384995c0.906006,-0.511002 2.257004,0.179001 3.021011,1.537003"/>
   <path fill="#fffffe" id="path2349" d="m150.850006,161.574005c-0.200989,1.536011 -1.194992,2.687012 -2.22699,2.554001c-1.031006,-0.134003 -1.707001,-1.491989 -1.506012,-3.042999c0.200012,-1.543991 1.195007,-2.694 2.226013,-2.554001c1.031998,0.126007 1.706985,1.492004 1.506989,3.042999"/>
   <path fill="#fffffe" id="path2351" d="m156.505005,158.738998c-0.200012,1.550995 -1.194,2.701004 -2.234009,2.561005c-1.024002,-0.126007 -1.69899,-1.492004 -1.505997,-3.042999c0.199997,-1.536011 1.194,-2.686996 2.225998,-2.561005c1.039001,0.134003 1.707001,1.499008 1.514008,3.042999"/>
   <path fill="#fffffe" id="path2353" d="m153.914993,150.026001c-0.199997,1.550995 -1.201996,2.694 -2.227005,2.567993c-1.039001,-0.133987 -1.707001,-1.498993 -1.513992,-3.042999c0.200989,-1.550995 1.202988,-2.694992 2.22699,-2.567993c1.031998,0.132996 1.707001,1.498993 1.514008,3.042999"/>
   <path fill="#fffffe" id="path2355" d="m158.621002,153.565994c-0.193008,1.535995 -1.195007,2.686996 -2.227005,2.560989c-1.031998,-0.141998 -1.707001,-1.498993 -1.507004,-3.042999c0.201004,-1.552002 1.195007,-2.701996 2.227005,-2.560989c1.031998,0.125992 1.707001,1.491989 1.507004,3.042999"/>
   <path fill="#d8eaca" id="path2357" d="m167.259995,159.399002l-13.100006,0.328003l2.285995,-10.458008l11.021011,-1.320999l-0.207001,11.451004"/>
   <path fill="#6b8d50" id="path2359" d="m156.445999,149.268997l11.020996,-1.320999l-0.207001,11.451004c0,0 -1.819,-9.447006 -2.768997,-9.617996c-0.957001,-0.171005 -8.044998,-0.512009 -8.044998,-0.512009"/>
   <path fill="#6b8d50" id="path2361" d="m154.960999,156.453003l-0.080994,0.319l-0.720001,2.955002l4.348999,-0.149002c0,0 -3.376999,-1.136002 -3.376999,-1.654999"/>
   <path fill="url(#Gradient_90)" id="path2363" d="m217.268005,201.503998c0.348999,-1.432999 0.097,-2.731995 0.097,-2.731995l-0.097,-1.542999l0,-34.964005l-37.436005,0l-0.475006,30.378006l0.060013,7.539993c0,0 -0.052002,1.871002 1.357986,3.524994c1.410004,1.641006 6.828003,2.591003 6.828003,2.591003l21.427002,-0.237991c0,0 5.365997,-0.653 7.065994,-2.353012c0.489014,-0.496994 0.808014,-1.067993 1.016006,-1.653992l0.156006,0l0,-0.550003z"/>
   <path fill="url(#Gradient_91)" id="path2365" d="m215.820999,165.582001c-3.028,3.279999 -9.143997,3.511002 -9.143997,3.511002l-17.427002,0c0,0 -5.884995,-0.468002 -8.207993,-3.511002c-1.292007,-1.699005 -1.336014,-3.473999 -1.336014,-3.473999l1.239014,-15.845001c0,0 0.326996,-2.561005 1.951996,-3.955002c1.625992,-1.380997 5.106995,-1.388992 5.106995,-1.388992l19.705002,0c0,0 4.171005,-0.230011 6.264008,1.166c2.085999,1.393997 1.988998,4.875992 1.988998,4.875992l1.112991,13.766998c0,0 0.527008,2.923996 -1.253998,4.854004z"/>
   <path fill="url(#Gradient_92)" id="path2367" d="m214.365997,164.699005c-2.76799,3.006012 -8.378998,3.214005 -8.378998,3.214005l-15.964996,0c0,0 -5.395004,-0.431 -7.518005,-3.214005c-1.188004,-1.557999 -1.231995,-3.18399 -1.231995,-3.18399l1.136002,-14.517014c0,0 0.304001,-2.346008 1.787994,-3.621994c1.492004,-1.276001 4.675995,-1.276001 4.675995,-1.276001l18.057999,0c0,0 3.822006,-0.216003 5.737015,1.067993c1.914993,1.276001 1.832993,4.468002 1.832993,4.468002l1.016998,12.610001c0,0 0.481995,2.686996 -1.151001,4.453003z"/>
   <path fill="#fffffe" id="path2369" d="m188.070007,153.811005c0.764999,1.358002 0.645996,2.873001 -0.259003,3.384003c-0.905991,0.50499 -2.255997,-0.177002 -3.020996,-1.536011c-0.772003,-1.358002 -0.653,-2.871994 0.251999,-3.384995c0.906006,-0.511002 2.257004,0.179001 3.028,1.537003"/>
   <path fill="#fffffe" id="path2371" d="m188.056,161.574005c-0.201004,1.536011 -1.195007,2.687012 -2.227005,2.554001c-1.024002,-0.134003 -1.707001,-1.491989 -1.506989,-3.042999c0.200989,-1.543991 1.195999,-2.694 2.22699,-2.554001c1.031998,0.126007 1.707001,1.492004 1.507004,3.042999"/>
   <path fill="#fffffe" id="path2373" d="m193.710999,158.738998c-0.199997,1.550995 -1.194992,2.701004 -2.227005,2.561005c-1.030991,-0.126007 -1.707001,-1.492004 -1.513,-3.042999c0.200012,-1.536011 1.202011,-2.686996 2.226013,-2.561005c1.038986,0.134003 1.707001,1.499008 1.513992,3.042999"/>
   <path fill="#fffffe" id="path2375" d="m191.121002,150.026001c-0.201004,1.550995 -1.195007,2.694 -2.225998,2.567993c-1.040009,-0.133987 -1.707001,-1.498993 -1.507004,-3.042999c0.192993,-1.550995 1.194992,-2.694992 2.225998,-2.567993c1.025009,0.132996 1.707001,1.498993 1.507004,3.042999"/>
   <path fill="#fffffe" id="path2377" d="m195.826004,153.565994c-0.193008,1.535995 -1.195007,2.686996 -2.225998,2.560989c-1.032013,-0.141998 -1.707001,-1.498993 -1.507004,-3.042999c0.199997,-1.552002 1.194992,-2.701996 2.227005,-2.560989c1.031998,0.125992 1.706985,1.491989 1.505997,3.042999"/>
   <path fill="#d8eaca" id="path2379" d="m204.464996,159.399002l-13.098999,0.328003l2.285995,-10.458008l11.021011,-1.320999l-0.208008,11.451004"/>
   <path fill="#6b8d50" id="path2381" d="m193.651993,149.268997l11.020996,-1.320999l-0.207993,11.451004c0,0 -1.818008,-9.447006 -2.768005,-9.617996c-0.957001,-0.171005 -8.044998,-0.512009 -8.044998,-0.512009"/>
   <path fill="#6b8d50" id="path2383" d="m192.167007,156.453003l-0.080994,0.319l-0.720001,2.955002l4.348999,-0.149002c0,0 -3.376999,-1.136002 -3.376999,-1.654999"/>
   <path fill="url(#Gradient_93)" id="path2385" d="m256.062988,201.503998c0.339996,-1.432999 0.088013,-2.731995 0.088013,-2.731995l-0.088013,-1.542999l0,-34.964005l-37.444,0l-0.468002,30.378006l0.052002,7.539993c0,0 -0.052002,1.871002 1.359009,3.524994c1.409988,1.641006 6.827988,2.591003 6.827988,2.591003l21.42601,-0.237991c0,0 5.366989,-0.653 7.065994,-2.353012c0.490005,-0.496994 0.809006,-1.067993 1.016998,-1.653992l0.164001,0l0,-0.550003z"/>
   <path fill="url(#Gradient_94)" id="path2387" d="m254.606995,165.582001c-3.020004,3.279999 -9.143005,3.511002 -9.143005,3.511002l-17.427002,0c0,0 -5.877991,-0.468002 -8.201004,-3.511002c-1.298996,-1.699005 -1.335999,-3.473999 -1.335999,-3.473999l1.23201,-15.845001c0,0 0.334,-2.561005 1.959,-3.955002c1.619003,-1.380997 5.099991,-1.388992 5.099991,-1.388992l19.70401,0c0,0 4.172012,-0.230011 6.264999,1.166c2.085007,1.393997 1.988998,4.875992 1.988998,4.875992l1.113007,13.766998c0,0 0.527008,2.923996 -1.255005,4.854004z"/>
   <path fill="url(#Gradient_95)" id="path2389" d="m253.160004,164.699005c-2.775009,3.006012 -8.387009,3.214005 -8.387009,3.214005l-15.963989,0c0,0 -5.395004,-0.431 -7.518005,-3.214005c-1.186996,-1.557999 -1.231995,-3.18399 -1.231995,-3.18399l1.134995,-14.517014c0,0 0.304993,-2.346008 1.789001,-3.621994c1.492004,-1.276001 4.675995,-1.276001 4.675995,-1.276001l18.065002,0c0,0 3.822006,-0.216003 5.737,1.067993c1.906998,1.276001 1.824997,4.468002 1.824997,4.468002l1.016998,12.610001c0,0 0.483002,2.686996 -1.14299,4.453003z"/>
   <path fill="#fffffe" id="path2391" d="m226.856995,153.811005c0.764999,1.358002 0.645996,2.873001 -0.259003,3.384003c-0.899002,0.50499 -2.257004,-0.177002 -3.020996,-1.536011c-0.764008,-1.358002 -0.653,-2.871994 0.251999,-3.384995c0.904999,-0.511002 2.263992,0.179001 3.028,1.537003"/>
   <path fill="#fffffe" id="path2393" d="m226.841995,161.574005c-0.192993,1.536011 -1.194992,2.687012 -2.225998,2.554001c-1.024002,-0.134003 -1.707001,-1.491989 -1.507004,-3.042999c0.201004,-1.543991 1.203003,-2.694 2.227005,-2.554001c1.039001,0.126007 1.707001,1.492004 1.505997,3.042999"/>
   <path fill="#fffffe" id="path2395" d="m232.498001,158.738998c-0.193008,1.550995 -1.195007,2.701004 -2.227005,2.561005c-1.031998,-0.126007 -1.707001,-1.492004 -1.505997,-3.042999c0.199997,-1.536011 1.194,-2.686996 2.225998,-2.561005c1.031006,0.134003 1.707001,1.499008 1.507004,3.042999"/>
   <path fill="#fffffe" id="path2397" d="m229.906998,150.026001c-0.199997,1.550995 -1.194,2.694 -2.225998,2.567993c-1.031998,-0.133987 -1.707001,-1.498993 -1.507004,-3.042999c0.201004,-1.550995 1.195007,-2.694992 2.227005,-2.567993c1.031998,0.132996 1.707001,1.498993 1.505997,3.042999"/>
   <path fill="#fffffe" id="path2399" d="m234.613007,153.565994c-0.192993,1.535995 -1.194992,2.686996 -2.225998,2.560989c-1.024994,-0.141998 -1.707001,-1.498993 -1.507004,-3.042999c0.200012,-1.552002 1.202011,-2.701996 2.225998,-2.560989c1.040009,0.125992 1.707001,1.491989 1.507004,3.042999"/>
   <path fill="#d8eaca" id="path2401" d="m243.251999,159.399002l-13.091995,0.328003l2.278,-10.458008l11.022003,-1.320999l-0.208008,11.451004"/>
   <path fill="#6b8d50" id="path2403" d="m232.438004,149.268997l11.022003,-1.320999l-0.208008,11.451004c0,0 -1.817993,-9.447006 -2.768997,-9.617996c-0.957001,-0.171005 -8.044998,-0.512009 -8.044998,-0.512009"/>
   <path fill="#6b8d50" id="path2405" d="m230.953995,156.453003l-0.074005,0.319l-0.720001,2.955002l4.341995,-0.149002c0,0 -3.376999,-1.136002 -3.376999,-1.654999"/>
   <path fill="url(#Gradient_96)" id="path2407" d="m180.063004,231.585007c0.347992,-1.425003 0.095993,-2.723999 0.095993,-2.723999l-0.095993,-1.543991l0,-34.965012l-37.436996,0l-0.475006,30.378006l0.059998,7.541c0,0 -0.052002,1.871002 1.358002,3.526001c1.410004,1.638992 6.828003,2.589996 6.828003,2.589996l21.427002,-0.237991c0,0 5.365997,-0.653 7.065994,-2.352005c0.488998,-0.505005 0.809006,-1.070007 1.016006,-1.654999l0.156998,0l0,-0.557007z"/>
   <path fill="url(#Gradient_97)" id="path2409" d="m178.615005,195.662994c-3.028,3.287994 -9.143997,3.51799 -9.143997,3.51799l-17.42601,0c0,0 -5.886002,-0.474991 -8.208984,-3.51799c-1.291,-1.699005 -1.335999,-3.466003 -1.335999,-3.466003l1.23999,-15.845001c0,0 0.326004,-2.561005 1.951004,-3.957001c1.626007,-1.380005 5.106995,-1.386993 5.106995,-1.386993l19.705002,0c0,0 4.171005,-0.231003 6.256989,1.164993c2.093002,1.395004 1.996017,4.869003 1.996017,4.869003l1.112991,13.774002c0,0 0.527008,2.916992 -1.253998,4.847z"/>
   <path fill="url(#Gradient_98)" id="path2411" d="m177.160004,194.779999c-2.768005,3.013 -8.378998,3.221008 -8.378998,3.221008l-15.965012,0c0,0 -5.394989,-0.431 -7.524994,-3.221008c-1.186996,-1.557999 -1.225006,-3.177002 -1.225006,-3.177002l1.136002,-14.516998c0,0 0.296997,-2.352997 1.78801,-3.621994c1.491989,-1.277008 4.675995,-1.277008 4.675995,-1.277008l18.057999,0c0,0 3.822006,-0.213989 5.737,1.061996c1.914001,1.284012 1.833008,4.476013 1.833008,4.476013l1.016998,12.60199c0,0 0.481995,2.693008 -1.151001,4.453003z"/>
   <path fill="#fffffe" id="path2413" d="m150.856995,183.899002c0.771988,1.358994 0.653,2.865997 -0.251999,3.376999c-0.906006,0.511993 -2.256012,-0.171005 -3.028,-1.529007c-0.764008,-1.36499 -0.653,-2.871994 0.258987,-3.383987c0.906006,-0.512009 2.257004,0.17099 3.021011,1.535995"/>
   <path fill="#fffffe" id="path2415" d="m150.850006,191.654999c-0.200989,1.544006 -1.194992,2.695007 -2.22699,2.561005c-1.031006,-0.134003 -1.707001,-1.492004 -1.506012,-3.042999c0.200012,-1.544006 1.195007,-2.701004 2.226013,-2.561005c1.031998,0.134003 1.706985,1.492004 1.506989,3.042999"/>
   <path fill="#fffffe" id="path2417" d="m156.505005,188.826996c-0.200012,1.552002 -1.194,2.702011 -2.234009,2.561005c-1.024002,-0.126007 -1.69899,-1.492004 -1.505997,-3.042999c0.199997,-1.535995 1.194,-2.694 2.225998,-2.561005c1.039001,0.134003 1.707001,1.492004 1.514008,3.042999"/>
   <path fill="#fffffe" id="path2419" d="m153.914993,180.113998c-0.199997,1.550995 -1.201996,2.695007 -2.227005,2.561005c-1.039001,-0.126007 -1.707001,-1.492004 -1.513992,-3.042999c0.200989,-1.55101 1.202988,-2.686996 2.22699,-2.561005c1.031998,0.134003 1.707001,1.499008 1.514008,3.042999"/>
   <path fill="#fffffe" id="path2421" d="m158.621002,183.647003c-0.193008,1.542999 -1.195007,2.694 -2.227005,2.567993c-1.031998,-0.140991 -1.707001,-1.498993 -1.507004,-3.042999c0.201004,-1.550995 1.195007,-2.701004 2.227005,-2.567993c1.031998,0.132996 1.707001,1.498993 1.507004,3.042999"/>
   <path fill="#d8eaca" id="path2423" d="m167.259995,189.488007l-13.100006,0.320007l2.285995,-10.451004l11.021011,-1.320999l-0.207001,11.451996"/>
   <path fill="#6b8d50" id="path2425" d="m156.445999,179.356995l11.020996,-1.320999l-0.207001,11.451996c0,0 -1.819,-9.447998 -2.768997,-9.626007c-0.957001,-0.164001 -8.044998,-0.50499 -8.044998,-0.50499"/>
   <path fill="#6b8d50" id="path2427" d="m154.960999,186.533997l-0.080994,0.326004l-0.720001,2.947998l4.348999,-0.149002c0,0 -3.376999,-1.128998 -3.376999,-1.647995"/>
   <path fill="url(#Gradient_99)" id="path2429" d="m217.268005,231.585007c0.348999,-1.425003 0.097,-2.723999 0.097,-2.723999l-0.097,-1.543991l0,-34.965012l-37.436005,0l-0.475006,30.378006l0.060013,7.541c0,0 -0.052002,1.871002 1.357986,3.526001c1.410004,1.638992 6.828003,2.589996 6.828003,2.589996l21.427002,-0.237991c0,0 5.365997,-0.653 7.065994,-2.352005c0.489014,-0.505005 0.808014,-1.070007 1.016006,-1.654999l0.156006,0l0,-0.557007z"/>
   <path fill="url(#Gradient_100)" id="path2431" d="m215.820999,195.662994c-3.028,3.287994 -9.143997,3.51799 -9.143997,3.51799l-17.427002,0c0,0 -5.884995,-0.474991 -8.207993,-3.51799c-1.292007,-1.699005 -1.336014,-3.466003 -1.336014,-3.466003l1.239014,-15.845001c0,0 0.326996,-2.561005 1.951996,-3.957001c1.625992,-1.380005 5.106995,-1.386993 5.106995,-1.386993l19.705002,0c0,0 4.171005,-0.231003 6.264008,1.164993c2.085999,1.395004 1.988998,4.869003 1.988998,4.869003l1.112991,13.774002c0,0 0.527008,2.916992 -1.253998,4.847z"/>
   <path fill="url(#Gradient_101)" id="path2433" d="m214.365997,194.779999c-2.76799,3.013 -8.378998,3.221008 -8.378998,3.221008l-15.964996,0c0,0 -5.395004,-0.431 -7.518005,-3.221008c-1.188004,-1.557999 -1.231995,-3.177002 -1.231995,-3.177002l1.136002,-14.516998c0,0 0.304001,-2.352997 1.787994,-3.621994c1.492004,-1.277008 4.675995,-1.277008 4.675995,-1.277008l18.057999,0c0,0 3.822006,-0.213989 5.737015,1.061996c1.914993,1.284012 1.832993,4.476013 1.832993,4.476013l1.016998,12.60199c0,0 0.481995,2.693008 -1.151001,4.453003z"/>
   <path fill="#fffffe" id="path2435" d="m188.070007,183.899002c0.764999,1.358994 0.645996,2.865997 -0.259003,3.376999c-0.905991,0.511993 -2.255997,-0.171005 -3.020996,-1.529007c-0.772003,-1.36499 -0.653,-2.871994 0.251999,-3.383987c0.906006,-0.512009 2.257004,0.17099 3.028,1.535995"/>
   <path fill="#fffffe" id="path2437" d="m188.056,191.654999c-0.201004,1.544006 -1.195007,2.695007 -2.227005,2.561005c-1.024002,-0.134003 -1.707001,-1.492004 -1.506989,-3.042999c0.200989,-1.544006 1.195999,-2.701004 2.22699,-2.561005c1.031998,0.134003 1.707001,1.492004 1.507004,3.042999"/>
   <path fill="#fffffe" id="path2439" d="m193.710999,188.826996c-0.199997,1.552002 -1.194992,2.702011 -2.227005,2.561005c-1.030991,-0.126007 -1.707001,-1.492004 -1.513,-3.042999c0.200012,-1.535995 1.202011,-2.694 2.226013,-2.561005c1.038986,0.134003 1.707001,1.492004 1.513992,3.042999"/>
   <path fill="#fffffe" id="path2441" d="m191.121002,180.113998c-0.201004,1.550995 -1.195007,2.695007 -2.225998,2.561005c-1.040009,-0.126007 -1.707001,-1.492004 -1.507004,-3.042999c0.192993,-1.55101 1.194992,-2.686996 2.225998,-2.561005c1.025009,0.134003 1.707001,1.499008 1.507004,3.042999"/>
   <path fill="#fffffe" id="path2443" d="m195.826004,183.647003c-0.193008,1.542999 -1.195007,2.694 -2.225998,2.567993c-1.032013,-0.140991 -1.707001,-1.498993 -1.507004,-3.042999c0.199997,-1.550995 1.194992,-2.701004 2.227005,-2.567993c1.031998,0.132996 1.706985,1.498993 1.505997,3.042999"/>
   <path fill="#d8eaca" id="path2445" d="m204.464996,189.488007l-13.098999,0.320007l2.285995,-10.451004l11.021011,-1.320999l-0.208008,11.451996"/>
   <path fill="#6b8d50" id="path2447" d="m193.651993,179.356995l11.020996,-1.320999l-0.207993,11.451996c0,0 -1.818008,-9.447998 -2.768005,-9.626007c-0.957001,-0.164001 -8.044998,-0.50499 -8.044998,-0.50499"/>
   <path fill="#6b8d50" id="path2449" d="m192.167007,186.533997l-0.080994,0.326004l-0.720001,2.947998l4.348999,-0.149002c0,0 -3.376999,-1.128998 -3.376999,-1.647995"/>
   <path fill="url(#Gradient_102)" id="path2451" d="m256.062988,231.585007c0.339996,-1.425003 0.088013,-2.723999 0.088013,-2.723999l-0.088013,-1.543991l0,-34.965012l-37.444,0l-0.468002,30.378006l0.052002,7.541c0,0 -0.052002,1.871002 1.359009,3.526001c1.409988,1.638992 6.827988,2.589996 6.827988,2.589996l21.42601,-0.237991c0,0 5.366989,-0.653 7.065994,-2.352005c0.490005,-0.505005 0.809006,-1.070007 1.016998,-1.654999l0.164001,0l0,-0.557007z"/>
   <path fill="url(#Gradient_103)" id="path2453" d="m254.606995,195.662994c-3.020004,3.287994 -9.143005,3.51799 -9.143005,3.51799l-17.427002,0c0,0 -5.877991,-0.474991 -8.201004,-3.51799c-1.298996,-1.699005 -1.335999,-3.466003 -1.335999,-3.466003l1.23201,-15.845001c0,0 0.334,-2.561005 1.959,-3.957001c1.619003,-1.380005 5.099991,-1.386993 5.099991,-1.386993l19.70401,0c0,0 4.172012,-0.231003 6.264999,1.164993c2.085007,1.395004 1.988998,4.869003 1.988998,4.869003l1.113007,13.774002c0,0 0.527008,2.916992 -1.255005,4.847z"/>
   <path fill="url(#Gradient_104)" id="path2455" d="m253.160004,194.779999c-2.775009,3.013 -8.387009,3.221008 -8.387009,3.221008l-15.963989,0c0,0 -5.395004,-0.431 -7.518005,-3.221008c-1.186996,-1.557999 -1.231995,-3.177002 -1.231995,-3.177002l1.134995,-14.516998c0,0 0.304993,-2.352997 1.789001,-3.621994c1.492004,-1.277008 4.675995,-1.277008 4.675995,-1.277008l18.065002,0c0,0 3.822006,-0.213989 5.737,1.061996c1.906998,1.284012 1.824997,4.476013 1.824997,4.476013l1.016998,12.60199c0,0 0.483002,2.693008 -1.14299,4.453003z"/>
   <path fill="#fffffe" id="path2457" d="m226.856995,183.899002c0.764999,1.358994 0.645996,2.865997 -0.259003,3.376999c-0.899002,0.511993 -2.257004,-0.171005 -3.020996,-1.529007c-0.764008,-1.36499 -0.653,-2.871994 0.251999,-3.383987c0.904999,-0.512009 2.263992,0.17099 3.028,1.535995"/>
   <path fill="#fffffe" id="path2459" d="m226.841995,191.654999c-0.192993,1.544006 -1.194992,2.695007 -2.225998,2.561005c-1.024002,-0.134003 -1.707001,-1.492004 -1.507004,-3.042999c0.201004,-1.544006 1.203003,-2.701004 2.227005,-2.561005c1.039001,0.134003 1.707001,1.492004 1.505997,3.042999"/>
   <path fill="#fffffe" id="path2461" d="m232.498001,188.826996c-0.193008,1.552002 -1.195007,2.702011 -2.227005,2.561005c-1.031998,-0.126007 -1.707001,-1.492004 -1.505997,-3.042999c0.199997,-1.535995 1.194,-2.694 2.225998,-2.561005c1.031006,0.134003 1.707001,1.492004 1.507004,3.042999"/>
   <path fill="#fffffe" id="path2463" d="m229.906998,180.113998c-0.199997,1.550995 -1.194,2.695007 -2.225998,2.561005c-1.031998,-0.126007 -1.707001,-1.492004 -1.507004,-3.042999c0.201004,-1.55101 1.195007,-2.686996 2.227005,-2.561005c1.031998,0.134003 1.707001,1.499008 1.505997,3.042999"/>
   <path fill="#fffffe" id="path2465" d="m234.613007,183.647003c-0.192993,1.542999 -1.194992,2.694 -2.225998,2.567993c-1.024994,-0.140991 -1.707001,-1.498993 -1.507004,-3.042999c0.200012,-1.550995 1.202011,-2.701004 2.225998,-2.567993c1.040009,0.132996 1.707001,1.498993 1.507004,3.042999"/>
   <path fill="#d8eaca" id="path2467" d="m243.251999,189.488007l-13.091995,0.320007l2.278,-10.451004l11.022003,-1.320999l-0.208008,11.451996"/>
   <path fill="#6b8d50" id="path2469" d="m232.438004,179.356995l11.022003,-1.320999l-0.208008,11.451996c0,0 -1.817993,-9.447998 -2.768997,-9.626007c-0.957001,-0.164001 -8.044998,-0.50499 -8.044998,-0.50499"/>
   <path fill="#6b8d50" id="path2471" d="m230.953995,186.533997l-0.074005,0.326004l-0.720001,2.947998l4.341995,-0.149002c0,0 -3.376999,-1.128998 -3.376999,-1.647995"/>
  </g>
 </g>
</svg>