<svg width="110" height="84" xmlns="http://www.w3.org/2000/svg">
 <defs>
  <clipPath id="clip0_1203_16749">
   <rect id="svg_1" fill="white" height="84" width="110"/>
  </clipPath>
 </defs>
 <g>
  <title>background</title>
  <rect fill="none" id="canvas_background" height="402" width="582" y="-1" x="-1"/>
 </g>
 <g>
  <title>Layer 1</title>
  <g id="svg_2" clip-path="url(#clip0_1203_16749)">
   <g id="svg_3">
    <path id="svg_4" fill="#B8B5AA" d="m106.625,74.8806c-0.139999,-0.233704 -0.324997,-0.4375 -0.543999,-0.599503c0.834999,-0.617599 0.924995,-1.816597 0,-3.124496c-0.428001,-0.622704 -0.970001,-1.158897 -1.597,-1.580498c0.552002,-0.353104 0.982002,-0.866501 1.234001,-1.471405c0.134995,-0.368996 0.192001,-0.761902 0.167999,-1.153999c-0.025002,-0.392097 -0.128998,-0.774902 -0.307999,-1.124596c-0.179001,-0.349602 -0.428001,-0.658501 -0.732002,-0.907204c-0.304001,-0.248802 -0.654999,-0.431999 -1.032997,-0.5383c1.414993,-0.744801 1.813995,-1.816601 0.979996,-2.597698c-1.784996,-1.047001 -3.913002,-1.341103 -5.914696,-0.817501l-0.1996,-0.181702c0.118401,-0.118599 0.2276,-0.246098 0.3265,-0.3815c0.2733,-0.337299 0.455696,-0.739098 0.529999,-1.167c0.074196,-0.427998 0.037697,-0.867798 -0.106003,-1.277599c-0.1437,-0.409801 -0.3899,-0.776001 -0.714996,-1.063499c-0.325104,-0.287601 -0.7183,-0.487 -1.142204,-0.579201c-0.399101,-0.132599 -0.813896,-0.211998 -1.233795,-0.236198c-1.211601,-1.425602 -2.878006,-2.388203 -4.717102,-2.724899c-1.093102,-0.3209 -2.2192,-0.515903 -3.3564,-0.581303c-0.0354,-0.2066 -0.096298,-0.408001 -0.181404,-0.599499c-0.444595,-0.945301 -1.1399,-1.750202 -2.010201,-2.326801c-0.870193,-0.576698 -1.881897,-0.902901 -2.924698,-0.9431c-0.175201,-0.0089 -0.350899,-0.0089 -0.5261,0c-1.746696,-1.1208 -3.809502,-1.643497 -5.878296,-1.489597c-0.706604,0.009998 -1.410904,0.082996 -2.104607,0.217999c0.008804,-0.072399 0.008804,-0.145599 0,-0.217999c-0.021294,-0.9869 -0.401695,-1.932102 -1.069893,-2.658001c-0.668106,-0.725903 -1.578003,-1.182499 -2.558601,-1.2841c-0.503105,-0.1003 -1.021004,-0.1003 -1.524002,0c-1.927902,-1.1674 -4.179497,-1.683201 -6.4226,-1.471401c-0.984901,0.035 -1.961002,0.199902 -2.902901,0.490501c-0.5406,-0.898701 -1.300301,-1.645203 -2.207901,-2.169502c-0.9076,-0.5243 -1.9333,-0.8092 -2.9809,-0.8279c-0.534698,-0.046299 -1.066299,0.117401 -1.4827,0.456303c-0.416397,0.338997 -0.684998,0.826797 -0.748898,1.360298c-0.047302,-0.106602 -0.101803,-0.209801 -0.1633,-0.3088c-0.593102,-0.9006 -1.401802,-1.638302 -2.352402,-2.146c-0.950699,-0.507599 -2.0131,-0.7691 -3.090401,-0.760601c-0.467598,0.021702 -0.917198,0.186501 -1.288097,0.472301c-1.722301,-0.7057 -3.592003,-0.974102 -5.442902,-0.781101c-0.961899,0.068501 -1.905899,0.295601 -2.793999,0.6721c-0.600002,-0.797699 -1.375103,-1.4468 -2.265301,-1.897198c-0.890202,-0.450401 -1.871799,-0.690102 -2.869102,-0.700603c-0.355698,-0.024399 -0.711699,0.043602 -1.033398,0.197502c-0.3218,0.153999 -0.598301,0.3885 -0.8027,0.681c-0.2045,0.2925 -0.33,0.6329 -0.3643,0.9883c-0.0343,0.355301 0.023699,0.713501 0.1684,1.039799c-0.7878,-0.834999 -1.747501,-1.488499 -2.8127,-1.9151c-1.065201,-0.426701 -2.2103,-0.616199 -3.3559,-0.5555c-0.286701,0.044102 -0.558701,0.156403 -0.7931,0.327499c-0.2344,0.171001 -0.4245,0.395901 -0.554199,0.655701c-0.129702,0.2598 -0.195301,0.546902 -0.191401,0.837299c0.004,0.290401 0.077499,0.575703 0.2143,0.831802c-0.904301,-0.7729 -1.9624,-1.344299 -3.104101,-1.6763c-1.1418,-0.332001 -2.341,-0.417 -3.518,-0.249302c-1.614799,0.454102 -1.5422,2.0709 0.0907,3.723999l-0.6895,-0.217999c-3.029799,-0.835598 -6.04152,-0.563099 -6.56766,0.3997c-0.19957,0.436001 0,0.926498 0.52614,1.416901c-0.82484,-0.2701 -1.70347,-0.3325 -2.55814,-0.181599c-1.81428,0.417797 -1.70542,2.125397 0,3.8512c-0.49757,0.145897 -0.96017,0.391899 -1.35948,0.723c-0.39931,0.3311 -0.72693,0.740299 -0.9628,1.202599c-0.24983,0.5187 -0.323,1.105099 -0.20831,1.669399c0.11468,0.564301 0.4109,1.0755 0.84331,1.4552c-1.36071,0.218002 -2.26786,0.6903 -2.26786,1.3624c0,0.672199 1.56029,1.907501 3.81,2.525101c-0.97971,0.109001 -1.70543,0.3997 -1.94128,0.872002c-0.54429,1.071796 1.59657,2.670399 4.789701,3.542397l0.59868,0.145302c-0.48982,0.254299 -0.79825,0.563099 -0.79825,0.944599c0,1.217201 2.70325,2.561501 6.04155,2.997402c-0.6894,0.308899 -1.070399,0.708496 -0.9978,1.198997c0.1814,1.180801 2.939101,2.361603 6.150401,2.597801c0.483398,0.026497 0.967999,0.026497 1.451399,0c-0.997799,0.817398 -1.143,1.816597 -0.1996,2.543198c1.7633,0.964806 3.832001,1.205803 5.769501,0.672203c1.400299,1.424202 3.2705,2.289497 5.2614,2.434196c1.0658,0.185699 2.148899,0.252701 3.229401,0.199806c0,0.127197 0,0.254395 0.108898,0.399696c0.442699,1.039001 1.177402,1.927002 2.114601,2.555801c0.937302,0.628899 2.0368,0.971596 3.164898,0.986595c0.736103,0.017502 1.450703,-0.2491 1.995701,-0.744797c0.109402,0.166 0.230701,0.323799 0.3629,0.472298c0.7034,0.831505 1.5872,1.491203 2.5839,1.928802c0.9967,0.437599 2.080002,0.641502 3.1674,0.596298c0.379799,-0.053398 0.737602,-0.210495 1.0341,-0.454201c0.138302,0.3088 0.338501,0.585899 0.5882,0.814003c0.249702,0.228096 0.543503,0.402397 0.863201,0.5121c0.771702,0.261101 1.590099,0.354103 2.400501,0.272598c0.810497,-0.081398 1.594097,-0.335396 2.2985,-0.744896c0.0569,0.197899 0.170498,0.374695 0.326599,0.508698c1.0886,1.126297 4.190998,1.562302 6.912403,0.944603c0.574295,-0.129601 1.133598,-0.318405 1.669197,-0.563103c0.271599,0.921898 0.815598,1.739799 1.560501,2.346199c0.744797,0.6064 1.655495,0.972702 2.612297,1.050797c0.600098,0.096703 1.215103,0.023804 1.776001,-0.210495c0.560997,-0.234299 1.045403,-0.620598 1.399002,-1.115601c0.314796,0.471001 0.772896,0.827698 1.306297,1.017296c0.989998,0.346306 2.054802,0.419403 3.082703,0.211601c1.027901,-0.207695 1.980995,-0.688698 2.7593,-1.392395c0.324997,0.393295 0.742798,0.699196 1.215599,0.890099c1.034798,0.358597 2.146996,0.431396 3.219696,0.210899c1.072701,-0.220604 2.066299,-0.726402 2.876305,-1.464302c0.286995,0.302902 0.632698,0.5439 1.0159,0.708504c1.009201,0.357201 2.094002,0.444595 3.147202,0.253395c1.053299,-0.191101 2.038399,-0.654198 2.858101,-1.343399c0.268898,-0.2258 0.490593,-0.502495 0.652496,-0.814201c0.161903,-0.311699 0.260803,-0.652397 0.291,-1.002396c2.3041,0.853798 4.626701,1.017296 5.551697,0.326996c0.925003,-0.6903 0.181,-1.816597 -1.469597,-2.961098c0.742599,0.055 1.488602,0.055 2.231598,0c3.210999,-0.109001 5.224998,-1.198997 4.608002,-2.4161z"/>
   </g>
   <path id="svg_5" fill="#ECE2AC" d="m108.857002,49.4118c-0.153,-0.3396 -0.375,-0.643002 -0.653999,-0.890099c0.360001,-0.915802 0.501999,-1.902302 0.417,-2.882401c-0.084999,-0.980103 -0.395004,-1.9272 -0.906006,-2.7673c-0.455994,-0.886501 -1.070999,-1.681 -1.814995,-2.343403c0.516998,-0.938198 0.842995,-1.969097 0.961998,-3.033699c0.325996,-2.906601 -0.797997,-5.449902 -2.557999,-6.067499c0.618996,-0.6621 1.003998,-1.509501 1.096001,-2.412001c0.091995,-0.9025 -0.115005,-1.8102 -0.588005,-2.5837c-1.215996,-1.3806 -3.773994,-1.126299 -5.9692,0.4723l-0.235893,-0.272499c0.090698,-0.254301 0.181396,-0.5086 0.253998,-0.762899c0.870895,-3.251801 -0.126999,-6.3218 -2.213402,-6.885c-0.411301,-0.100101 -0.840599,-0.100101 -1.2519,0c-0.544403,-0.940901 -1.306396,-1.7372 -2.221901,-2.322001c-0.915596,-0.584801 -1.957901,-0.941 -3.039497,-1.0387c-1.119301,-0.2296 -2.273399,-0.2296 -3.3927,0c-0.069,-0.3465 -0.1661,-0.6867 -0.290298,-1.0173c-1.052299,-3.0338 -3.501602,-4.923031 -5.442902,-4.2509c-0.1745,0.0688 -0.339302,0.1604 -0.489799,0.2725c-0.851898,-0.68565 -1.881699,-1.11322 -2.968201,-1.23231c-1.086403,-0.11908 -2.184303,0.07527 -3.164101,0.56017c-0.718002,0.26114 -1.395897,0.62194 -2.013802,1.07184c-0.009102,-0.133101 -0.009102,-0.266601 0,-0.3997c-0.145203,-3.36072 -2.086502,-6.01297 -4.263596,-5.88581c-0.540207,0.0384 -1.057304,0.23416 -1.487701,0.56315c-0.937599,-0.70036 -2.055099,-1.1185 -3.221603,-1.20538c-1.1665,-0.08687 -2.333599,0.16112 -3.3643,0.7149c-1.034599,0.41865 -1.9776,1.03575 -2.775799,1.8166c-1.2882,-2.81574 -3.773701,-4.46885 -5.642399,-3.63321c-0.689301,0.41245 -1.234001,1.02876 -1.558903,1.76403c-0.324898,0.73527 -0.4142,1.55333 -0.255398,2.3415c0,-0.16349 -0.126999,-0.32699 -0.217701,-0.49048c-1.4333,-2.83391 -4.063999,-4.37803 -5.8965,-3.45156c-0.514198,0.28697 -0.9216,0.73316 -1.161098,1.27163c-0.901802,-0.35331 -1.8722,-0.49605 -2.837303,-0.41735c-0.965199,0.0787 -1.8997,0.37675 -2.732498,0.8715c-1.030201,0.48567 -1.940899,1.19276 -2.667,2.07093c-1.4515,-2.45242 -3.7738,-3.76038 -5.4429,-2.97923c-1.6691,0.78114 -2.358601,3.28806 -1.6329,5.92214c-1.9412,-2.52509 -4.7897,-3.63322 -6.4951,-2.41609c-1.360701,0.962801 -1.6147,3.05193 -0.762001,5.23183c-2.2316,-2.2526 -5.170699,-2.9974 -6.712799,-1.5986c-1.5422,1.398801 -1.143001,4.269 0.7438,6.6851l-0.7075,-0.1453c-3.2113,-0.490499 -6.0779,0.817501 -6.40447,2.888401c-0.04881,0.426699 -0.00431,0.858999 0.1304,1.2668c0.13472,0.407801 0.35642,0.781401 0.64974,1.094799c-0.43917,-0.1012 -0.89497,-0.1066 -1.33639,-0.015699c-0.44142,0.0909 -0.85812,0.2759 -1.22175,0.5425c-1.61471,1.326101 -1.28814,4.3962 0.68943,6.921301c-1.07989,1.1481 -1.78269,2.599901 -2.01385,4.159998c-0.1843,0.943203 -0.17143,1.914402 0.03778,2.852402c0.20921,0.938 0.61024,1.822399 1.17779,2.597401c-0.59567,0.300598 -1.09709,0.759701 -1.44917,1.3269c-0.35207,0.567299 -0.54118,1.220699 -0.54655,1.8885c0.14515,1.653198 1.81429,2.906597 4.20914,3.251801c-0.45296,0.203796 -0.85255,0.509998 -1.16735,0.894497c-0.31481,0.384602 -0.53625,0.837002 -0.64693,1.321701c-0.27214,2.216301 2.12271,4.305401 5.49728,4.832199l0.6169,0c-0.445601,0.5807 -0.6648,1.303902 -0.6169,2.034599c0.2177,2.179901 3.120601,3.633202 6.4951,3.378902c-0.2967,0.332901 -0.5184,0.7258 -0.6499,1.1521c-0.131498,0.426399 -0.169699,0.875999 -0.112099,1.318501c0.399199,2.0891 3.3202,3.269901 6.5315,2.670399c0.4881,-0.1007 0.9674,-0.240398 1.433199,-0.417801c-0.443199,0.707199 -0.655199,1.535301 -0.6064,2.368805c0.0487,0.833595 0.3559,1.631096 0.878601,2.2817c1.288099,1.253494 3.6285,0.890099 5.787498,-0.6903c0.602301,0.920593 1.450199,1.653694 2.447502,2.116096c0.997398,0.462402 2.104298,0.635597 3.195,0.499802c1.106697,-0.021103 2.1982,-0.261902 3.211197,-0.708504c0,0.218002 0.108902,0.454201 0.181503,0.6903c1.0341,3.215401 3.628498,5.268204 5.624199,4.5961c0.450199,-0.187302 0.8521,-0.474197 1.175701,-0.839096c0.3237,-0.365005 0.5606,-0.7985 0.6931,-1.268204c0.131298,0.262001 0.276699,0.516701 0.435398,0.763c1.814301,2.561401 4.4631,3.723999 6.114101,2.615898c0.412201,-0.284195 0.733601,-0.681595 0.925301,-1.144493c0.134399,0.406395 0.354698,0.779099 0.645798,1.092499c0.291203,0.313499 0.6464,0.560501 1.0415,0.724098c1.487701,0.544998 3.302002,-0.508598 4.517601,-2.4161c0.087101,0.301697 0.2285,0.5849 0.417198,0.835701c1.2882,1.653099 4.408798,1.3806 6.966904,-0.599503c0.576195,-0.455299 1.0942,-0.980003 1.542099,-1.562302c0.707596,2.961105 2.7033,5.050201 4.717201,4.741402c0.737396,-0.209999 1.399994,-0.625397 1.910698,-1.197899c0.510803,-0.572403 0.848503,-1.278404 0.973999,-2.035698c0.303802,0.633797 0.8255,1.136795 1.469597,1.417c1.923103,0.726601 4.408707,-1.090004 5.442802,-4.069206c0.2995,0.542603 0.7817,0.961006 1.360703,1.180801c1.995697,0.762901 4.571999,-1.126297 5.751297,-4.232697c0.286499,0.402901 0.674706,0.722595 1.124802,0.926399c1.814301,0.781197 4.463203,-0.980904 5.696899,-3.942001c0.4748,-1.117699 0.685799,-2.3298 0.616898,-3.5424c2.4132,0.781101 4.735207,0.327 5.443207,-1.235298c0.706993,-1.562302 -0.164001,-3.397102 -1.978004,-4.832199l0,-0.109001c0.754997,-0.102001 1.493004,-0.3036 2.195,-0.599499c3.302002,-1.435101 5.117004,-4.069202 4.355003,-6.031101z"/>
   <path id="svg_6" fill="#FCFBE6" d="m87.212196,33.2621c0.117004,-0.223499 0.220001,-0.453999 0.308403,-0.6903c1.106697,-2.924801 0.471703,-5.903999 -1.4151,-6.612499c-0.520599,-0.1581 -1.072502,-0.182701 -1.605103,-0.071701c-0.5326,0.111099 -1.028694,0.354401 -1.442894,0.7075c0.852699,-2.579601 0.290199,-5.1047 -1.397003,-5.813101c-0.409302,-0.1429 -0.845703,-0.191 -1.276199,-0.1406c-0.430504,0.050301 -0.844002,0.1978 -1.209404,0.4312c-0.642197,-1.479399 -1.813499,-2.6651 -3.283897,-3.3244c-0.785995,-0.389299 -1.632797,-0.641199 -2.5037,-0.744799c0.123001,-0.521101 0.078598,-1.067901 -0.126999,-1.562301c-0.780098,-1.8166 -3.737396,-2.397901 -6.622101,-1.1989c-0.5979,0.2542 -1.164101,0.5773 -1.687302,0.9628c-0.147697,-0.5562 -0.360794,-1.0928 -0.634995,-1.5986c-1.487701,-2.7068 -4.009502,-4.10557 -5.715004,-3.1973c0.008503,-0.084499 0.008503,-0.1697 0,-0.254299c-0.2994,-0.66479 -0.846199,-1.18626 -1.523998,-1.45328c-0.211502,-0.36771 -0.501801,-0.68389 -0.850101,-0.92577c-0.348198,-0.24187 -0.745701,-0.40342 -1.1637,-0.47301c-0.552898,-0.01642 -1.100597,0.11042 -1.590099,0.36822c-0.489498,0.25779 -0.904198,0.63781 -1.203899,1.10323l-0.417301,0.14533c-0.977798,0.403899 -1.870399,0.98947 -2.630699,1.72578c-1.215599,-2.67042 -3.628601,-4.2327 -5.315899,-3.48789c-0.6674,0.38457 -1.199902,0.96617 -1.524601,1.665269c-0.324799,0.69911 -0.4259,1.481621 -0.2896,2.24042c0,-0.1635 -0.127098,-0.327 -0.1996,-0.4723c-1.360699,-2.67042 -3.846298,-4.14187 -5.569901,-3.2699c-0.604698,0.34205 -1.058197,0.89997 -1.27,1.56229c-0.826797,-0.27057 -1.701,-0.36509 -2.566399,-0.2775c-0.865499,0.0876 -1.7031,0.35537 -2.459101,0.78615c-1.192999,0.58285 -2.198799,1.48916 -2.902899,2.61596c-0.4604,-0.7192 -1.138,-1.2726 -1.934101,-1.5797c-0.7962,-0.307099 -1.669399,-0.351999 -2.492699,-0.127999c-1.651001,0.763 -2.1772,3.2336 -1.3426,5.795c-1.814301,-2.506901 -4.608301,-3.633201 -6.277401,-2.4342c-1.6692,1.1989 -1.5603,4.105499 0.127001,6.685101c-0.6287,-0.4368 -1.3757,-0.670801 -2.140901,-0.670801c-0.7652,0 -1.5121,0.234001 -2.1408,0.670801c-1.54218,1.3806 -1.05232,4.414299 1.0885,6.7941l0.3447,0.3452c-2.90281,-0.327 -5.44281,0.871901 -5.69681,2.7612c-0.23585,1.507799 1.03415,3.0156 2.99357,3.851198c-1.27,1.3806 -0.889,4.141903 0.96154,6.412601c0.6756,0.832199 1.5078,1.523499 2.4493,2.034599c-0.1573,0.461002 -0.2727,0.935303 -0.3447,1.417c-0.4354,3.0882 0.834599,5.831303 2.8303,6.103802c0.1268,0.009098 0.2541,0.009098 0.381,0c0.2177,1.907398 2.6851,3.251701 5.624301,3.0882c-0.1089,1.943798 2.068199,3.833099 5.043699,4.305401c0.599501,0.097298 1.208,0.1278 1.814199,0.090797c0.7258,1.616802 3.1388,2.652302 5.896502,2.398003c0.353798,-0.041401 0.705097,-0.102001 1.052299,-0.181702c0.471699,1.816601 3.156799,2.924702 6.095898,2.361599c0.5737,-0.106499 1.133602,-0.277199 1.669201,-0.508698c-0.061699,0.4468 -0.0238,0.901699 0.111099,1.3321c0.134903,0.430298 0.363403,0.825397 0.669003,1.1567c1.469601,1.3806 4.390598,0.672096 6.531399,-1.580502l0.1996,-0.236099c1.277901,0.972401 2.860802,1.455601 4.4632,1.3624c1.435799,0.0023 2.8368,-0.442101 4.009499,-1.271599c1.124901,2.434296 3.193203,3.887596 4.916698,3.324402c1.723602,-0.563103 2.540001,-2.942902 2.032005,-5.595104l0.235901,0.417801c1.632797,2.4161 4.227295,3.524197 5.787498,2.4706c0.411896,-0.321999 0.732399,-0.746201 0.929802,-1.230701c0.197296,-0.484398 0.264595,-1.0121 0.195099,-1.530598c0.2089,0.1852 0.448296,0.332699 0.707596,0.436001c1.814301,0.653999 4.045799,-1.0718 5.061806,-3.833c0.127899,-0.355801 0.230896,-0.720001 0.308495,-1.09c1.428902,-0.123501 2.794205,-0.647301 3.939705,-1.511501c1.145393,-0.8643 2.024696,-2.033901 2.537193,-3.375198c1.941307,-0.454102 3.120605,-3.179001 2.648903,-6.267303c-0.156403,-0.994797 -0.501198,-1.950497 -1.015999,-2.815697c0.495399,-0.626701 0.892998,-1.324902 1.179298,-2.071003c1.070404,-2.906498 0.471703,-5.758598 -1.360703,-6.448898z"/>
   <path id="svg_7" fill="white" d="m54.2286,46.1054c1.505802,-5.449902 -4.735298,-11.8806 -13.9156,-14.423901c-9.180201,-2.543299 -17.852499,-0.2362 -19.3584,5.177299c-1.5058,5.413502 4.7353,11.880703 13.915602,14.423901c9.180298,2.543301 17.852497,0.236202 19.358398,-5.177299z"/>
   <path id="svg_8" fill="#ed9c1a" d="m0,22.2896c3.39271,-9.083 15.8387,-18.16606 23.585699,-20.67298c15.0585,-0.54498 62.629,-1.81661 86.015299,17.71198c0.653,9.846001 0.236,10.445499 0,12.7162c-4.662994,1.217102 -20.156799,3.5424 -30.552696,17.675602c-14.223999,-5.776802 -57.512802,-19.328701 -77.596872,-14.7327c-0.96157,-6.049301 -1.45143,-12.698101 -1.45143,-12.698101z"/>
   <path id="svg_9" fill="#e28016" d="m79.102699,49.756699c2.158302,-2.928398 4.7034,-5.549999 7.565598,-7.793198c-1.396996,-2.434299 -4.499397,-5.141003 -10.232498,-8.192902c-22.732998,-12.098598 -65.550098,-13.333899 -76.435799,-11.480999c0,0 0.48986,6.6488 1.45143,12.716301c20.084069,-4.614201 63.372873,8.937698 77.651269,14.750797z"/>
   <path id="svg_10" fill="#ed8a28" d="m109.654999,32.0811c0.236,-2.3071 0.653,-2.9065 0,-12.7162c-14.205795,-1.816601 -29.336899,10.3365 -33.219498,14.532801c2.902901,5.3409 2.667,15.986198 2.667,15.986198c10.395897,-14.260399 25.889496,-16.585598 30.552498,-17.802799z"/>
   <path id="svg_11" fill="#f2b15c" d="m95.322502,16.240499c4.336197,-1.344299 -10.414001,-9.609829 -24.565399,-11.408269c-14.151402,-1.79845 -26.053104,0.38148 -26.615501,4.86851c-0.562401,4.487061 4.499397,5.84946 16.818398,13.04326c21.136398,12.316601 8.763,1.344301 34.362503,-6.5035z"/>
   <path id="svg_12" fill="#eaa52e" d="m109.654999,19.329c-18.723099,-15.69555 -52.922398,-17.929971 -73.5508,-17.94814c23.3862,0.01817 54.610004,3.0519 72.135799,17.221441c0.421005,3.6194 0.452003,7.273699 0.091003,10.8997l-0.635002,0.1635l-29.028702,16.930798c-12.972099,-5.104698 -45.865097,-15.386698 -67.436897,-15.386698c-2.8558,-0.0263 -5.70861,0.192499 -8.52712,0.653999c-0.67128,-4.7232 -1.07043,-9.5009 -1.17928,-10.7544c3.37457,-8.7379 15.167401,-17.148759 22.3701,-19.51035l5.2796,-0.14533c-2.1227,0 -4.0096,0.109 -5.4429,0.1635c-7.8921,2.47059 -20.338091,11.57178 -23.730801,20.672981c0,0 0.48986,6.6488 1.45143,12.716301c20.084069,-4.596003 63.372873,8.955898 77.651368,14.768997c10.395798,-14.133198 25.890205,-16.4585 30.5522,-17.675598c0.236,-2.325201 0.653,-2.924702 0,-12.7707z"/>
   <g id="svg_13">
    <path id="svg_14" fill="#FDE471" d="m91.004204,29.738001c-0.0177,-0.3549 -0.139008,-0.6968 -0.348801,-0.983301c-0.2099,-0.2866 -0.499001,-0.505199 -0.831703,-0.628901c-0.332703,-0.123699 -0.694298,-0.146898 -1.0401,-0.066898c-0.345703,0.08 -0.6604,0.2598 -0.905197,0.517099c-0.244705,0.257299 -0.408699,0.580799 -0.471703,0.9305c-0.062897,0.349699 -0.022102,0.710199 0.1175,1.0369c0.139603,0.3267 0.371803,0.6052 0.667801,0.8011c0.296097,0.195801 0.643097,0.300501 0.997902,0.300901c0.246094,0.000299 0.4897,-0.049501 0.715996,-0.1464c0.226204,-0.096901 0.430405,-0.238901 0.600098,-0.4174c0.169701,-0.1784 0.301407,-0.3895 0.3871,-0.620501c0.085602,-0.230999 0.123405,-0.476999 0.111107,-0.723099z"/>
   </g>
   <g id="svg_15">
    <path id="svg_16" fill="#FDE471" d="m57.258701,34.5158c0,-0.337299 -0.133801,-0.660702 -0.371902,-0.8992c-0.238197,-0.238499 -0.561199,-0.372501 -0.898098,-0.372501c-0.3368,0 -0.659801,0.134003 -0.898003,0.372501c-0.238098,0.238499 -0.371899,0.561901 -0.371899,0.8992c0,0.3372 0.133801,0.660698 0.371899,0.899101c0.238201,0.238499 0.561203,0.372498 0.898003,0.372498c0.336899,0 0.659901,-0.133999 0.898098,-0.372498c0.238102,-0.238403 0.371902,-0.561901 0.371902,-0.899101z"/>
   </g>
   <g id="svg_17">
    <path id="svg_18" fill="#FDE471" d="m18.3785,25.9228c0,-0.334101 -0.099001,-0.6607 -0.284399,-0.938601c-0.1854,-0.2778 -0.4489,-0.494299 -0.7572,-0.6222c-0.3083,-0.127899 -0.6476,-0.161299 -0.974901,-0.0961c-0.327299,0.0651 -0.627899,0.226101 -0.863899,0.462299c-0.236,0.236301 -0.3967,0.5373 -0.461801,0.865002c-0.0651,0.327799 -0.0317,0.6675 0.096001,0.9762c0.1278,0.308699 0.344,0.572498 0.6215,0.7582c0.277499,0.1856 0.6037,0.2847 0.9374,0.2847c0.2216,0 0.441,-0.043701 0.6457,-0.128601c0.204699,-0.0849 0.390699,-0.2094 0.5474,-0.366199c0.1567,-0.1569 0.280899,-0.343201 0.3657,-0.5481c0.084801,-0.205 0.1285,-0.424702 0.1285,-0.646601z"/>
   </g>
   <g id="svg_19">
    <path id="svg_20" fill="#FDE471" d="m66.820297,33.553001c0,-0.4132 -0.122398,-0.817101 -0.351601,-1.160702c-0.229294,-0.343498 -0.555099,-0.6113 -0.936394,-0.7694c-0.381203,-0.1581 -0.800705,-0.199499 -1.205505,-0.1189c-0.404697,0.080601 -0.776398,0.2796 -1.068199,0.571802c-0.291798,0.292099 -0.490498,0.664398 -0.570999,1.069599c-0.080601,0.4053 -0.0392,0.825298 0.118702,1.207001c0.157898,0.381798 0.425301,0.707996 0.768398,0.937599c0.343102,0.2295 0.746498,0.3521 1.159203,0.3521c0.274696,0.002399 0.547096,-0.050003 0.8013,-0.154102c0.254196,-0.104099 0.485199,-0.2579 0.679398,-0.4524c0.194199,-0.1945 0.347801,-0.4258 0.451797,-0.680298c0.104004,-0.254601 0.156303,-0.527302 0.1539,-0.802299z"/>
   </g>
   <g id="svg_21">
    <path id="svg_22" fill="#FDE471" d="m6.91261,27.376301c0.00359,-0.3141 -0.08639,-0.622101 -0.25844,-0.8848c-0.17205,-0.2626 -0.41837,-0.468 -0.70752,-0.589901c-0.28915,-0.121799 -0.60801,-0.154699 -0.91587,-0.094299c-0.30787,0.0604 -0.59078,0.2113 -0.81261,0.433399c-0.22183,0.2222 -0.37253,0.5054 -0.43285,0.8137c-0.06033,0.308201 -0.02754,0.627501 0.09417,0.917c0.12171,0.289501 0.32682,0.536201 0.58915,0.7085c0.26233,0.172201 0.56999,0.2623 0.88369,0.258701c0.41381,0 0.81067,-0.1646 1.10328,-0.4576c0.29261,-0.2929 0.457,-0.6903 0.457,-1.1047z"/>
   </g>
   <g id="svg_23">
    <path id="svg_24" fill="#FDE471" d="m13.5894,15.2959c0,-0.545 -0.5625,-1.09 -1.4515,-1.2535c-0.889,-0.163501 -1.669101,0.1453 -1.8142,0.6721c-0.1452,0.526899 0.5624,1.108199 1.4514,1.2535c0.889,0.1453 1.7054,-0.145301 1.814301,-0.6721z"/>
   </g>
   <g id="svg_25">
    <path id="svg_26" fill="#FDE471" d="m27.485901,4.43251c0,-0.45415 -0.471701,-0.92647 -1.215502,-1.05363c-0.743898,-0.12717 -1.415199,0.12716 -1.505899,0.58131c-0.0907,0.45415 0.471701,0.90831 1.215601,1.05364c0.743799,0.14532 1.4151,-0.12717 1.5058,-0.58132z"/>
   </g>
   <g id="svg_27">
    <path id="svg_28" fill="#FDE471" d="m27.5776,12.8978c0.0907,-0.472401 -0.489901,-0.981001 -1.2882,-1.126301c-0.7983,-0.1454 -1.542101,0.1271 -1.632799,0.6176c-0.090801,0.490499 0.507999,0.981 1.306198,1.1263c0.798302,0.1453 1.5422,-0.1272 1.614801,-0.617599z"/>
   </g>
   <g id="svg_29">
    <path id="svg_30" fill="#FDE471" d="m73.423698,17.0035c0,-0.3633 -0.380997,-0.744801 -0.979698,-0.8538c-0.598701,-0.108999 -1.161201,0.108999 -1.215599,0.472401c-0.054398,0.363298 0.3629,0.744799 0.979698,0.8538c0.616898,0.108999 1.142998,-0.109001 1.215599,-0.472401z"/>
   </g>
   <g id="svg_31">
    <path id="svg_32" fill="#FDE471" d="m33.382401,6.17648c0,-0.27249 -0.272102,-0.56315 -0.7439,-0.63581c-0.471699,-0.07267 -0.8708,0 -0.907101,0.34515c-0.036299,0.34516 0.272102,0.56315 0.7439,0.65398c0.471699,0.09083 0.8708,-0.09083 0.907101,-0.36332z"/>
   </g>
   <g id="svg_33">
    <path id="svg_34" fill="#FDE471" d="m63.844898,23.2528c0,-0.3815 -0.399197,-0.799299 -1.052299,-0.9083c-0.653198,-0.108999 -1.215599,0.109001 -1.2882,0.4904c-0.072498,0.3815 0.3992,0.7994 1.052303,0.9084c0.653198,0.1089 1.215599,-0.127199 1.288197,-0.490499z"/>
   </g>
   <g id="svg_35">
    <path id="svg_36" fill="#FDE471" d="m89.952301,13.7152c0,-0.2907 -0.290298,-0.581401 -0.762001,-0.6722c-0.471703,-0.0908 -0.889,0 -0.943398,0.363299c-0.054504,0.3634 0.290298,0.581401 0.762001,0.6722c0.471695,0.0908 0.907097,-0.090799 0.943398,-0.363299z"/>
   </g>
   <g id="svg_37">
    <path id="svg_38" fill="#FDE471" d="m78.812698,11.7898c0.090698,-0.508599 -0.5261,-1.0355 -1.360695,-1.198899c-0.834602,-0.163501 -1.596603,0.1453 -1.687302,0.653899c-0.090698,0.5087 0.526199,1.035501 1.360695,1.1808c0.834602,0.1454 1.596603,-0.1271 1.687302,-0.6358z"/>
   </g>
   <g id="svg_39">
    <path id="svg_40" fill="#FDE471" d="m76.726303,25.8867c0.090698,-0.599499 -0.616905,-1.2171 -1.6147,-1.3988c-0.997902,-0.181601 -1.814301,0.1635 -1.9776,0.763c-0.1633,0.599501 0.616898,1.2171 1.6147,1.3988c0.997894,0.1817 1.868698,-0.1635 1.9776,-0.763z"/>
   </g>
   <g stroke="null" id="svg_41">
    <path stroke="null" id="svg_42" fill="#FDE471" d="m86.414398,19.437901c0,-0.490501 -0.508095,-1.0173 -1.342598,-1.162601c-0.834602,-0.145399 -1.5784,0.127102 -1.669197,0.635801c-0.090706,0.5086 0.507996,1.0354 1.342598,1.180799c0.834602,0.1453 1.5784,-0.108999 1.669197,-0.653999z"/>
   </g>
   <g id="svg_43">
    <path id="svg_44" fill="#FDE471" d="m74.748802,40.310799c0,-0.431198 -0.127701,-0.8526 -0.366905,-1.211098c-0.239197,-0.358501 -0.5793,-0.637901 -0.977097,-0.802902c-0.397797,-0.164997 -0.835503,-0.208199 -1.257904,-0.1241c-0.422295,0.084202 -0.810196,0.291801 -1.114693,0.5966c-0.304504,0.304901 -0.511803,0.693302 -0.595802,1.116203c-0.084,0.422897 -0.040901,0.861198 0.123901,1.259499c0.164696,0.3983 0.443794,0.7388 0.801796,0.978298c0.358002,0.239601 0.778999,0.367401 1.209602,0.367401c0.286499,0.002399 0.570702,-0.052299 0.835999,-0.160999c0.265198,-0.1087 0.506203,-0.269199 0.708801,-0.472099c0.202698,-0.2029 0.362999,-0.444202 0.471497,-0.709702c0.108604,-0.265598 0.1632,-0.550201 0.160805,-0.837101z"/>
   </g>
   <g id="svg_45">
    <path id="svg_46" fill="#FDE471" d="m106.026001,25.577801c0,-0.323301 -0.095001,-0.6394 -0.275002,-0.9083c-0.179001,-0.2689 -0.433998,-0.478401 -0.733002,-0.6022c-0.297997,-0.123701 -0.625999,-0.156101 -0.943001,-0.093c-0.316994,0.063099 -0.607994,0.2188 -0.835999,0.447399c-0.227997,0.228701 -0.383995,0.52 -0.446999,0.8372c-0.063004,0.317101 -0.030998,0.6458 0.093002,0.944601c0.124001,0.298698 0.333,0.5541 0.600998,0.7337c0.268997,0.179699 0.584999,0.275599 0.907997,0.275599c0.433006,0 0.848,-0.172298 1.153999,-0.478899c0.306,-0.306601 0.478004,-0.7225 0.478004,-1.156099z"/>
   </g>
   <g id="svg_47">
    <path id="svg_48" fill="#FDE471" d="m85.561401,39.130001c0.003502,-0.253002 -0.068298,-0.5014 -0.206505,-0.7132c-0.138199,-0.211903 -0.336296,-0.377701 -0.569099,-0.4762c-0.232796,-0.098503 -0.489594,-0.125202 -0.737694,-0.076702c-0.248001,0.0485 -0.475906,0.170002 -0.654602,0.3489c-0.178703,0.178902 -0.300102,0.407101 -0.348503,0.655502c-0.048401,0.248398 -0.021698,0.505497 0.076599,0.738598c0.098404,0.233101 0.264,0.431499 0.475601,0.569801c0.211601,0.138401 0.459602,0.2103 0.712303,0.206799c0.164398,0 0.327202,-0.032497 0.479095,-0.095501c0.151802,-0.062897 0.289902,-0.155296 0.406105,-0.271698c0.116196,-0.116402 0.208397,-0.254501 0.2714,-0.406601c0.062897,-0.1521 0.095299,-0.315098 0.095299,-0.479698z"/>
   </g>
   <path id="svg_49" fill="#030800" d="m54.029202,0c-9.434303,1.61678 -24.511002,16.022499 -27.903702,22.108101c-0.2358,2.706799 -2.685101,32.5718 4.9167,47.468002c1.3608,1.525993 17.816301,7.884094 24.039301,7.375496c-2.648899,-5.794998 -6.368099,-37.004398 -1.451401,-50.992298c3.628498,-5.322601 15.258099,-17.766391 26.869503,-19.982661c11.611397,-2.21626 -26.470402,-5.97664 -26.470402,-5.97664z"/>
   <path id="svg_50" fill="#113000" d="m55.008801,14.0241c-6.331902,10.772399 -7.003201,11.408299 -14.042599,9.591599c-6.658401,-1.6894 -15.693502,-0.417799 -5.442802,-10.1366c11.538799,-10.71802 22.823601,-13.75176 28.538597,-11.35384c2.757706,1.14447 -3.501495,2.41609 -9.053196,11.89884z"/>
   <path id="svg_51" fill="white" d="m69.377998,5.72239c0.1633,-1.1808 -3.628601,-2.65225 -8.5453,-3.30623c-4.916698,-0.65398 -8.944397,-0.21799 -9.0714,0.9628c-0.126999,1.1808 4.535702,-0.87197 8.835602,1.16263c7.329697,3.50606 8.636002,2.3616 8.781097,1.1808z"/>
  </g>
 </g>
</svg>